<?xml version="1.0" encoding="utf-8" standalone="no"?>
<!DOCTYPE svg PUBLIC "-//W3C//DTD SVG 1.1//EN"
  "http://www.w3.org/Graphics/SVG/1.1/DTD/svg11.dtd">
<svg xmlns:xlink="http://www.w3.org/1999/xlink" width="960.613647pt" height="356.4pt" viewBox="0 0 960.613647 356.4" xmlns="http://www.w3.org/2000/svg" version="1.1">
 <metadata>
  <rdf:RDF xmlns:dc="http://purl.org/dc/elements/1.1/" xmlns:cc="http://creativecommons.org/ns#" xmlns:rdf="http://www.w3.org/1999/02/22-rdf-syntax-ns#">
   <cc:Work>
    <dc:type rdf:resource="http://purl.org/dc/dcmitype/StillImage"/>
    <dc:date>2026-05-14T09:39:06.018272</dc:date>
    <dc:format>image/svg+xml</dc:format>
    <dc:creator>
     <cc:Agent>
      <dc:title>Matplotlib v3.9.4, https://matplotlib.org/</dc:title>
     </cc:Agent>
    </dc:creator>
   </cc:Work>
  </rdf:RDF>
 </metadata>
 <defs>
  <style type="text/css">*{stroke-linejoin: round; stroke-linecap: butt}</style>
 </defs>
 <g id="figure_1">
  <g id="patch_1">
   <path d="M 0 356.4 
L 960.613647 356.4 
L 960.613647 0 
L 0 0 
z
" style="fill: #ffffff"/>
  </g>
  <g id="axes_1">
   <g id="line2d_1">
    <path d="M 147.906824 208.493176 
L 241.711373 208.493176 
" clip-path="url(#p1b96b8bafc)" style="fill: none; stroke: #333333; stroke-width: 1.5; stroke-linecap: square"/>
   </g>
   <g id="patch_2">
    <path d="M 147.906824 227.254086 
C 152.882275 227.254086 157.654615 225.277318 161.17279 221.759143 
C 164.690966 218.240968 166.667733 213.468628 166.667733 208.493176 
C 166.667733 203.517725 164.690966 198.745385 161.17279 195.22721 
C 157.654615 191.709034 152.882275 189.732267 147.906824 189.732267 
C 142.931372 189.732267 138.159032 191.709034 134.640857 195.22721 
C 131.122682 198.745385 129.145914 203.517725 129.145914 208.493176 
C 129.145914 213.468628 131.122682 218.240968 134.640857 221.759143 
C 138.159032 225.277318 142.931372 227.254086 147.906824 227.254086 
z
" clip-path="url(#p1b96b8bafc)" style="fill: #4caf50; stroke: #333333; stroke-width: 2; stroke-linejoin: miter"/>
   </g>
   <g id="patch_3">
    <path d="M 241.711373 222.563859 
C 245.442961 222.563859 249.022216 221.081283 251.660847 218.442651 
C 254.299479 215.80402 255.782055 212.224765 255.782055 208.493176 
C 255.782055 204.761588 254.299479 201.182333 251.660847 198.543702 
C 249.022216 195.90507 245.442961 194.422494 241.711373 194.422494 
C 237.979784 194.422494 234.400529 195.90507 231.761898 198.543702 
C 229.123266 201.182333 227.64069 204.761588 227.64069 208.493176 
C 227.64069 212.224765 229.123266 215.80402 231.761898 218.442651 
C 234.400529 221.081283 237.979784 222.563859 241.711373 222.563859 
z
" clip-path="url(#p1b96b8bafc)" style="fill: #4caf50; stroke: #333333; stroke-width: 2; stroke-linejoin: miter"/>
   </g>
   <g id="text_1">
    <!-- 0 -->
    <g transform="translate(144.427917 211.252551) scale(0.1 -0.1)">
     <defs>
      <path id="DejaVuSans-Bold-30" d="M 2944 2338 
Q 2944 3213 2780 3570 
Q 2616 3928 2228 3928 
Q 1841 3928 1675 3570 
Q 1509 3213 1509 2338 
Q 1509 1453 1675 1090 
Q 1841 728 2228 728 
Q 2613 728 2778 1090 
Q 2944 1453 2944 2338 
z
M 4147 2328 
Q 4147 1169 3647 539 
Q 3147 -91 2228 -91 
Q 1306 -91 806 539 
Q 306 1169 306 2328 
Q 306 3491 806 4120 
Q 1306 4750 2228 4750 
Q 3147 4750 3647 4120 
Q 4147 3491 4147 2328 
z
" transform="scale(0.015625)"/>
     </defs>
     <use xlink:href="#DejaVuSans-Bold-30"/>
    </g>
   </g>
   <g id="text_2">
    <!-- S0 -->
    <g style="fill: #666666" transform="translate(142.822449 240.8372) scale(0.08 -0.08)">
     <defs>
      <path id="DejaVuSans-53" d="M 3425 4513 
L 3425 3897 
Q 3066 4069 2747 4153 
Q 2428 4238 2131 4238 
Q 1616 4238 1336 4038 
Q 1056 3838 1056 3469 
Q 1056 3159 1242 3001 
Q 1428 2844 1947 2747 
L 2328 2669 
Q 3034 2534 3370 2195 
Q 3706 1856 3706 1288 
Q 3706 609 3251 259 
Q 2797 -91 1919 -91 
Q 1588 -91 1214 -16 
Q 841 59 441 206 
L 441 856 
Q 825 641 1194 531 
Q 1563 422 1919 422 
Q 2459 422 2753 634 
Q 3047 847 3047 1241 
Q 3047 1584 2836 1778 
Q 2625 1972 2144 2069 
L 1759 2144 
Q 1053 2284 737 2584 
Q 422 2884 422 3419 
Q 422 4038 858 4394 
Q 1294 4750 2059 4750 
Q 2388 4750 2728 4690 
Q 3069 4631 3425 4513 
z
" transform="scale(0.015625)"/>
      <path id="DejaVuSans-30" d="M 2034 4250 
Q 1547 4250 1301 3770 
Q 1056 3291 1056 2328 
Q 1056 1369 1301 889 
Q 1547 409 2034 409 
Q 2525 409 2770 889 
Q 3016 1369 3016 2328 
Q 3016 3291 2770 3770 
Q 2525 4250 2034 4250 
z
M 2034 4750 
Q 2819 4750 3233 4129 
Q 3647 3509 3647 2328 
Q 3647 1150 3233 529 
Q 2819 -91 2034 -91 
Q 1250 -91 836 529 
Q 422 1150 422 2328 
Q 422 3509 836 4129 
Q 1250 4750 2034 4750 
z
" transform="scale(0.015625)"/>
     </defs>
     <use xlink:href="#DejaVuSans-53"/>
     <use xlink:href="#DejaVuSans-30" x="63.476562"/>
    </g>
   </g>
   <g id="text_3">
    <!-- 1 -->
    <g transform="translate(238.232466 211.252551) scale(0.1 -0.1)">
     <defs>
      <path id="DejaVuSans-Bold-31" d="M 750 831 
L 1813 831 
L 1813 3847 
L 722 3622 
L 722 4441 
L 1806 4666 
L 2950 4666 
L 2950 831 
L 4013 831 
L 4013 0 
L 750 0 
L 750 831 
z
" transform="scale(0.015625)"/>
     </defs>
     <use xlink:href="#DejaVuSans-Bold-31"/>
    </g>
   </g>
   <g id="text_4">
    <!-- S1 -->
    <g style="fill: #666666" transform="translate(236.626998 235.208927) scale(0.08 -0.08)">
     <defs>
      <path id="DejaVuSans-31" d="M 794 531 
L 1825 531 
L 1825 4091 
L 703 3866 
L 703 4441 
L 1819 4666 
L 2450 4666 
L 2450 531 
L 3481 531 
L 3481 0 
L 794 0 
L 794 531 
z
" transform="scale(0.015625)"/>
     </defs>
     <use xlink:href="#DejaVuSans-53"/>
     <use xlink:href="#DejaVuSans-31" x="63.476562"/>
    </g>
   </g>
   <g id="text_5">
    <!-- v=2 (min) -->
    <g transform="translate(120.132683 20.833572) scale(0.11 -0.11)">
     <defs>
      <path id="DejaVuSans-76" d="M 191 3500 
L 800 3500 
L 1894 563 
L 2988 3500 
L 3597 3500 
L 2284 0 
L 1503 0 
L 191 3500 
z
" transform="scale(0.015625)"/>
      <path id="DejaVuSans-3d" d="M 678 2906 
L 4684 2906 
L 4684 2381 
L 678 2381 
L 678 2906 
z
M 678 1631 
L 4684 1631 
L 4684 1100 
L 678 1100 
L 678 1631 
z
" transform="scale(0.015625)"/>
      <path id="DejaVuSans-32" d="M 1228 531 
L 3431 531 
L 3431 0 
L 469 0 
L 469 531 
Q 828 903 1448 1529 
Q 2069 2156 2228 2338 
Q 2531 2678 2651 2914 
Q 2772 3150 2772 3378 
Q 2772 3750 2511 3984 
Q 2250 4219 1831 4219 
Q 1534 4219 1204 4116 
Q 875 4013 500 3803 
L 500 4441 
Q 881 4594 1212 4672 
Q 1544 4750 1819 4750 
Q 2544 4750 2975 4387 
Q 3406 4025 3406 3419 
Q 3406 3131 3298 2873 
Q 3191 2616 2906 2266 
Q 2828 2175 2409 1742 
Q 1991 1309 1228 531 
z
" transform="scale(0.015625)"/>
      <path id="DejaVuSans-20" transform="scale(0.015625)"/>
      <path id="DejaVuSans-28" d="M 1984 4856 
Q 1566 4138 1362 3434 
Q 1159 2731 1159 2009 
Q 1159 1288 1364 580 
Q 1569 -128 1984 -844 
L 1484 -844 
Q 1016 -109 783 600 
Q 550 1309 550 2009 
Q 550 2706 781 3412 
Q 1013 4119 1484 4856 
L 1984 4856 
z
" transform="scale(0.015625)"/>
      <path id="DejaVuSans-6d" d="M 3328 2828 
Q 3544 3216 3844 3400 
Q 4144 3584 4550 3584 
Q 5097 3584 5394 3201 
Q 5691 2819 5691 2113 
L 5691 0 
L 5113 0 
L 5113 2094 
Q 5113 2597 4934 2840 
Q 4756 3084 4391 3084 
Q 3944 3084 3684 2787 
Q 3425 2491 3425 1978 
L 3425 0 
L 2847 0 
L 2847 2094 
Q 2847 2600 2669 2842 
Q 2491 3084 2119 3084 
Q 1678 3084 1418 2786 
Q 1159 2488 1159 1978 
L 1159 0 
L 581 0 
L 581 3500 
L 1159 3500 
L 1159 2956 
Q 1356 3278 1631 3431 
Q 1906 3584 2284 3584 
Q 2666 3584 2933 3390 
Q 3200 3197 3328 2828 
z
" transform="scale(0.015625)"/>
      <path id="DejaVuSans-69" d="M 603 3500 
L 1178 3500 
L 1178 0 
L 603 0 
L 603 3500 
z
M 603 4863 
L 1178 4863 
L 1178 4134 
L 603 4134 
L 603 4863 
z
" transform="scale(0.015625)"/>
      <path id="DejaVuSans-6e" d="M 3513 2113 
L 3513 0 
L 2938 0 
L 2938 2094 
Q 2938 2591 2744 2837 
Q 2550 3084 2163 3084 
Q 1697 3084 1428 2787 
Q 1159 2491 1159 1978 
L 1159 0 
L 581 0 
L 581 3500 
L 1159 3500 
L 1159 2956 
Q 1366 3272 1645 3428 
Q 1925 3584 2291 3584 
Q 2894 3584 3203 3211 
Q 3513 2838 3513 2113 
z
" transform="scale(0.015625)"/>
      <path id="DejaVuSans-29" d="M 513 4856 
L 1013 4856 
Q 1481 4119 1714 3412 
Q 1947 2706 1947 2009 
Q 1947 1309 1714 600 
Q 1481 -109 1013 -844 
L 513 -844 
Q 928 -128 1133 580 
Q 1338 1288 1338 2009 
Q 1338 2731 1133 3434 
Q 928 4138 513 4856 
z
" transform="scale(0.015625)"/>
     </defs>
     <use xlink:href="#DejaVuSans-76"/>
     <use xlink:href="#DejaVuSans-3d" x="59.179688"/>
     <use xlink:href="#DejaVuSans-32" x="142.96875"/>
     <use xlink:href="#DejaVuSans-20" x="206.591797"/>
     <use xlink:href="#DejaVuSans-28" x="238.378906"/>
     <use xlink:href="#DejaVuSans-6d" x="277.392578"/>
     <use xlink:href="#DejaVuSans-69" x="374.804688"/>
     <use xlink:href="#DejaVuSans-6e" x="402.587891"/>
     <use xlink:href="#DejaVuSans-29" x="465.966797"/>
    </g>
    <!-- order=[0, 1] -->
    <g transform="translate(113.844636 33.151165) scale(0.11 -0.11)">
     <defs>
      <path id="DejaVuSans-6f" d="M 1959 3097 
Q 1497 3097 1228 2736 
Q 959 2375 959 1747 
Q 959 1119 1226 758 
Q 1494 397 1959 397 
Q 2419 397 2687 759 
Q 2956 1122 2956 1747 
Q 2956 2369 2687 2733 
Q 2419 3097 1959 3097 
z
M 1959 3584 
Q 2709 3584 3137 3096 
Q 3566 2609 3566 1747 
Q 3566 888 3137 398 
Q 2709 -91 1959 -91 
Q 1206 -91 779 398 
Q 353 888 353 1747 
Q 353 2609 779 3096 
Q 1206 3584 1959 3584 
z
" transform="scale(0.015625)"/>
      <path id="DejaVuSans-72" d="M 2631 2963 
Q 2534 3019 2420 3045 
Q 2306 3072 2169 3072 
Q 1681 3072 1420 2755 
Q 1159 2438 1159 1844 
L 1159 0 
L 581 0 
L 581 3500 
L 1159 3500 
L 1159 2956 
Q 1341 3275 1631 3429 
Q 1922 3584 2338 3584 
Q 2397 3584 2469 3576 
Q 2541 3569 2628 3553 
L 2631 2963 
z
" transform="scale(0.015625)"/>
      <path id="DejaVuSans-64" d="M 2906 2969 
L 2906 4863 
L 3481 4863 
L 3481 0 
L 2906 0 
L 2906 525 
Q 2725 213 2448 61 
Q 2172 -91 1784 -91 
Q 1150 -91 751 415 
Q 353 922 353 1747 
Q 353 2572 751 3078 
Q 1150 3584 1784 3584 
Q 2172 3584 2448 3432 
Q 2725 3281 2906 2969 
z
M 947 1747 
Q 947 1113 1208 752 
Q 1469 391 1925 391 
Q 2381 391 2643 752 
Q 2906 1113 2906 1747 
Q 2906 2381 2643 2742 
Q 2381 3103 1925 3103 
Q 1469 3103 1208 2742 
Q 947 2381 947 1747 
z
" transform="scale(0.015625)"/>
      <path id="DejaVuSans-65" d="M 3597 1894 
L 3597 1613 
L 953 1613 
Q 991 1019 1311 708 
Q 1631 397 2203 397 
Q 2534 397 2845 478 
Q 3156 559 3463 722 
L 3463 178 
Q 3153 47 2828 -22 
Q 2503 -91 2169 -91 
Q 1331 -91 842 396 
Q 353 884 353 1716 
Q 353 2575 817 3079 
Q 1281 3584 2069 3584 
Q 2775 3584 3186 3129 
Q 3597 2675 3597 1894 
z
M 3022 2063 
Q 3016 2534 2758 2815 
Q 2500 3097 2075 3097 
Q 1594 3097 1305 2825 
Q 1016 2553 972 2059 
L 3022 2063 
z
" transform="scale(0.015625)"/>
      <path id="DejaVuSans-5b" d="M 550 4863 
L 1875 4863 
L 1875 4416 
L 1125 4416 
L 1125 -397 
L 1875 -397 
L 1875 -844 
L 550 -844 
L 550 4863 
z
" transform="scale(0.015625)"/>
      <path id="DejaVuSans-2c" d="M 750 794 
L 1409 794 
L 1409 256 
L 897 -744 
L 494 -744 
L 750 256 
L 750 794 
z
" transform="scale(0.015625)"/>
      <path id="DejaVuSans-5d" d="M 1947 4863 
L 1947 -844 
L 622 -844 
L 622 -397 
L 1369 -397 
L 1369 4416 
L 622 4416 
L 622 4863 
L 1947 4863 
z
" transform="scale(0.015625)"/>
     </defs>
     <use xlink:href="#DejaVuSans-6f"/>
     <use xlink:href="#DejaVuSans-72" x="61.181641"/>
     <use xlink:href="#DejaVuSans-64" x="100.544922"/>
     <use xlink:href="#DejaVuSans-65" x="164.021484"/>
     <use xlink:href="#DejaVuSans-72" x="225.544922"/>
     <use xlink:href="#DejaVuSans-3d" x="266.658203"/>
     <use xlink:href="#DejaVuSans-5b" x="350.447266"/>
     <use xlink:href="#DejaVuSans-30" x="389.460938"/>
     <use xlink:href="#DejaVuSans-2c" x="453.083984"/>
     <use xlink:href="#DejaVuSans-20" x="484.871094"/>
     <use xlink:href="#DejaVuSans-31" x="516.658203"/>
     <use xlink:href="#DejaVuSans-5d" x="580.28125"/>
    </g>
    <!-- labels=[0, 0] -->
    <g transform="translate(112.344167 45.468759) scale(0.11 -0.11)">
     <defs>
      <path id="DejaVuSans-6c" d="M 603 4863 
L 1178 4863 
L 1178 0 
L 603 0 
L 603 4863 
z
" transform="scale(0.015625)"/>
      <path id="DejaVuSans-61" d="M 2194 1759 
Q 1497 1759 1228 1600 
Q 959 1441 959 1056 
Q 959 750 1161 570 
Q 1363 391 1709 391 
Q 2188 391 2477 730 
Q 2766 1069 2766 1631 
L 2766 1759 
L 2194 1759 
z
M 3341 1997 
L 3341 0 
L 2766 0 
L 2766 531 
Q 2569 213 2275 61 
Q 1981 -91 1556 -91 
Q 1019 -91 701 211 
Q 384 513 384 1019 
Q 384 1609 779 1909 
Q 1175 2209 1959 2209 
L 2766 2209 
L 2766 2266 
Q 2766 2663 2505 2880 
Q 2244 3097 1772 3097 
Q 1472 3097 1187 3025 
Q 903 2953 641 2809 
L 641 3341 
Q 956 3463 1253 3523 
Q 1550 3584 1831 3584 
Q 2591 3584 2966 3190 
Q 3341 2797 3341 1997 
z
" transform="scale(0.015625)"/>
      <path id="DejaVuSans-62" d="M 3116 1747 
Q 3116 2381 2855 2742 
Q 2594 3103 2138 3103 
Q 1681 3103 1420 2742 
Q 1159 2381 1159 1747 
Q 1159 1113 1420 752 
Q 1681 391 2138 391 
Q 2594 391 2855 752 
Q 3116 1113 3116 1747 
z
M 1159 2969 
Q 1341 3281 1617 3432 
Q 1894 3584 2278 3584 
Q 2916 3584 3314 3078 
Q 3713 2572 3713 1747 
Q 3713 922 3314 415 
Q 2916 -91 2278 -91 
Q 1894 -91 1617 61 
Q 1341 213 1159 525 
L 1159 0 
L 581 0 
L 581 4863 
L 1159 4863 
L 1159 2969 
z
" transform="scale(0.015625)"/>
      <path id="DejaVuSans-73" d="M 2834 3397 
L 2834 2853 
Q 2591 2978 2328 3040 
Q 2066 3103 1784 3103 
Q 1356 3103 1142 2972 
Q 928 2841 928 2578 
Q 928 2378 1081 2264 
Q 1234 2150 1697 2047 
L 1894 2003 
Q 2506 1872 2764 1633 
Q 3022 1394 3022 966 
Q 3022 478 2636 193 
Q 2250 -91 1575 -91 
Q 1294 -91 989 -36 
Q 684 19 347 128 
L 347 722 
Q 666 556 975 473 
Q 1284 391 1588 391 
Q 1994 391 2212 530 
Q 2431 669 2431 922 
Q 2431 1156 2273 1281 
Q 2116 1406 1581 1522 
L 1381 1569 
Q 847 1681 609 1914 
Q 372 2147 372 2553 
Q 372 3047 722 3315 
Q 1072 3584 1716 3584 
Q 2034 3584 2315 3537 
Q 2597 3491 2834 3397 
z
" transform="scale(0.015625)"/>
     </defs>
     <use xlink:href="#DejaVuSans-6c"/>
     <use xlink:href="#DejaVuSans-61" x="27.783203"/>
     <use xlink:href="#DejaVuSans-62" x="89.0625"/>
     <use xlink:href="#DejaVuSans-65" x="152.539062"/>
     <use xlink:href="#DejaVuSans-6c" x="214.0625"/>
     <use xlink:href="#DejaVuSans-73" x="241.845703"/>
     <use xlink:href="#DejaVuSans-3d" x="293.945312"/>
     <use xlink:href="#DejaVuSans-5b" x="377.734375"/>
     <use xlink:href="#DejaVuSans-30" x="416.748047"/>
     <use xlink:href="#DejaVuSans-2c" x="480.371094"/>
     <use xlink:href="#DejaVuSans-20" x="512.158203"/>
     <use xlink:href="#DejaVuSans-30" x="543.945312"/>
     <use xlink:href="#DejaVuSans-5d" x="607.568359"/>
    </g>
    <!-- LOO=0, Rep=1, gap=1 -->
    <g transform="translate(84.26237 57.786353) scale(0.11 -0.11)">
     <defs>
      <path id="DejaVuSans-4c" d="M 628 4666 
L 1259 4666 
L 1259 531 
L 3531 531 
L 3531 0 
L 628 0 
L 628 4666 
z
" transform="scale(0.015625)"/>
      <path id="DejaVuSans-4f" d="M 2522 4238 
Q 1834 4238 1429 3725 
Q 1025 3213 1025 2328 
Q 1025 1447 1429 934 
Q 1834 422 2522 422 
Q 3209 422 3611 934 
Q 4013 1447 4013 2328 
Q 4013 3213 3611 3725 
Q 3209 4238 2522 4238 
z
M 2522 4750 
Q 3503 4750 4090 4092 
Q 4678 3434 4678 2328 
Q 4678 1225 4090 567 
Q 3503 -91 2522 -91 
Q 1538 -91 948 565 
Q 359 1222 359 2328 
Q 359 3434 948 4092 
Q 1538 4750 2522 4750 
z
" transform="scale(0.015625)"/>
      <path id="DejaVuSans-52" d="M 2841 2188 
Q 3044 2119 3236 1894 
Q 3428 1669 3622 1275 
L 4263 0 
L 3584 0 
L 2988 1197 
Q 2756 1666 2539 1819 
Q 2322 1972 1947 1972 
L 1259 1972 
L 1259 0 
L 628 0 
L 628 4666 
L 2053 4666 
Q 2853 4666 3247 4331 
Q 3641 3997 3641 3322 
Q 3641 2881 3436 2590 
Q 3231 2300 2841 2188 
z
M 1259 4147 
L 1259 2491 
L 2053 2491 
Q 2509 2491 2742 2702 
Q 2975 2913 2975 3322 
Q 2975 3731 2742 3939 
Q 2509 4147 2053 4147 
L 1259 4147 
z
" transform="scale(0.015625)"/>
      <path id="DejaVuSans-70" d="M 1159 525 
L 1159 -1331 
L 581 -1331 
L 581 3500 
L 1159 3500 
L 1159 2969 
Q 1341 3281 1617 3432 
Q 1894 3584 2278 3584 
Q 2916 3584 3314 3078 
Q 3713 2572 3713 1747 
Q 3713 922 3314 415 
Q 2916 -91 2278 -91 
Q 1894 -91 1617 61 
Q 1341 213 1159 525 
z
M 3116 1747 
Q 3116 2381 2855 2742 
Q 2594 3103 2138 3103 
Q 1681 3103 1420 2742 
Q 1159 2381 1159 1747 
Q 1159 1113 1420 752 
Q 1681 391 2138 391 
Q 2594 391 2855 752 
Q 3116 1113 3116 1747 
z
" transform="scale(0.015625)"/>
      <path id="DejaVuSans-67" d="M 2906 1791 
Q 2906 2416 2648 2759 
Q 2391 3103 1925 3103 
Q 1463 3103 1205 2759 
Q 947 2416 947 1791 
Q 947 1169 1205 825 
Q 1463 481 1925 481 
Q 2391 481 2648 825 
Q 2906 1169 2906 1791 
z
M 3481 434 
Q 3481 -459 3084 -895 
Q 2688 -1331 1869 -1331 
Q 1566 -1331 1297 -1286 
Q 1028 -1241 775 -1147 
L 775 -588 
Q 1028 -725 1275 -790 
Q 1522 -856 1778 -856 
Q 2344 -856 2625 -561 
Q 2906 -266 2906 331 
L 2906 616 
Q 2728 306 2450 153 
Q 2172 0 1784 0 
Q 1141 0 747 490 
Q 353 981 353 1791 
Q 353 2603 747 3093 
Q 1141 3584 1784 3584 
Q 2172 3584 2450 3431 
Q 2728 3278 2906 2969 
L 2906 3500 
L 3481 3500 
L 3481 434 
z
" transform="scale(0.015625)"/>
     </defs>
     <use xlink:href="#DejaVuSans-4c"/>
     <use xlink:href="#DejaVuSans-4f" x="52.087891"/>
     <use xlink:href="#DejaVuSans-4f" x="130.798828"/>
     <use xlink:href="#DejaVuSans-3d" x="209.509766"/>
     <use xlink:href="#DejaVuSans-30" x="293.298828"/>
     <use xlink:href="#DejaVuSans-2c" x="356.921875"/>
     <use xlink:href="#DejaVuSans-20" x="388.708984"/>
     <use xlink:href="#DejaVuSans-52" x="420.496094"/>
     <use xlink:href="#DejaVuSans-65" x="485.478516"/>
     <use xlink:href="#DejaVuSans-70" x="547.001953"/>
     <use xlink:href="#DejaVuSans-3d" x="610.478516"/>
     <use xlink:href="#DejaVuSans-31" x="694.267578"/>
     <use xlink:href="#DejaVuSans-2c" x="757.890625"/>
     <use xlink:href="#DejaVuSans-20" x="789.677734"/>
     <use xlink:href="#DejaVuSans-67" x="821.464844"/>
     <use xlink:href="#DejaVuSans-61" x="884.941406"/>
     <use xlink:href="#DejaVuSans-70" x="946.220703"/>
     <use xlink:href="#DejaVuSans-3d" x="1009.697266"/>
     <use xlink:href="#DejaVuSans-31" x="1093.486328"/>
    </g>
   </g>
   <g id="legend_1">
    <g id="patch_4">
     <path d="M 228.197397 97.671353 
L 283.013647 97.671353 
Q 284.613647 97.671353 284.613647 96.071353 
L 284.613647 73.386353 
Q 284.613647 71.786353 283.013647 71.786353 
L 228.197397 71.786353 
Q 226.597397 71.786353 226.597397 73.386353 
L 226.597397 96.071353 
Q 226.597397 97.671353 228.197397 97.671353 
z
" style="fill: #ffffff; opacity: 0.8; stroke: #cccccc; stroke-linejoin: miter"/>
    </g>
    <g id="patch_5">
     <path d="M 229.797397 81.065103 
L 245.797397 81.065103 
L 245.797397 75.465103 
L 229.797397 75.465103 
z
" style="fill: #4caf50; stroke: #000000; stroke-linejoin: miter"/>
    </g>
    <g id="text_6">
     <!-- Label 0 -->
     <g transform="translate(252.197397 81.065103) scale(0.08 -0.08)">
      <use xlink:href="#DejaVuSans-4c"/>
      <use xlink:href="#DejaVuSans-61" x="55.712891"/>
      <use xlink:href="#DejaVuSans-62" x="116.992188"/>
      <use xlink:href="#DejaVuSans-65" x="180.46875"/>
      <use xlink:href="#DejaVuSans-6c" x="241.992188"/>
      <use xlink:href="#DejaVuSans-20" x="269.775391"/>
      <use xlink:href="#DejaVuSans-30" x="301.5625"/>
     </g>
    </g>
    <g id="patch_6">
     <path d="M 229.797397 92.807603 
L 245.797397 92.807603 
L 245.797397 87.207603 
L 229.797397 87.207603 
z
" style="fill: #2196f3; stroke: #000000; stroke-linejoin: miter"/>
    </g>
    <g id="text_7">
     <!-- Label 1 -->
     <g transform="translate(252.197397 92.807603) scale(0.08 -0.08)">
      <use xlink:href="#DejaVuSans-4c"/>
      <use xlink:href="#DejaVuSans-61" x="55.712891"/>
      <use xlink:href="#DejaVuSans-62" x="116.992188"/>
      <use xlink:href="#DejaVuSans-65" x="180.46875"/>
      <use xlink:href="#DejaVuSans-6c" x="241.992188"/>
      <use xlink:href="#DejaVuSans-20" x="269.775391"/>
      <use xlink:href="#DejaVuSans-31" x="301.5625"/>
     </g>
    </g>
   </g>
  </g>
  <g id="axes_2">
   <g id="line2d_2">
    <path d="M 480.306824 208.493176 
L 574.111373 208.493176 
" clip-path="url(#p9a48447895)" style="fill: none; stroke: #333333; stroke-width: 1.5; stroke-linecap: square"/>
   </g>
   <g id="line2d_3">
    <path d="M 480.306824 208.493176 
L 386.502275 208.493176 
" clip-path="url(#p9a48447895)" style="fill: none; stroke: #333333; stroke-width: 1.5; stroke-linecap: square"/>
   </g>
   <g id="patch_7">
    <path d="M 480.306824 227.254086 
C 485.282275 227.254086 490.054615 225.277318 493.57279 221.759143 
C 497.090966 218.240968 499.067733 213.468628 499.067733 208.493176 
C 499.067733 203.517725 497.090966 198.745385 493.57279 195.22721 
C 490.054615 191.709034 485.282275 189.732267 480.306824 189.732267 
C 475.331372 189.732267 470.559032 191.709034 467.040857 195.22721 
C 463.522682 198.745385 461.545914 203.517725 461.545914 208.493176 
C 461.545914 213.468628 463.522682 218.240968 467.040857 221.759143 
C 470.559032 225.277318 475.331372 227.254086 480.306824 227.254086 
z
" clip-path="url(#p9a48447895)" style="fill: #4caf50; stroke: #333333; stroke-width: 2; stroke-linejoin: miter"/>
   </g>
   <g id="patch_8">
    <path d="M 574.111373 222.563859 
C 577.842961 222.563859 581.422216 221.081283 584.060847 218.442651 
C 586.699479 215.80402 588.182055 212.224765 588.182055 208.493176 
C 588.182055 204.761588 586.699479 201.182333 584.060847 198.543702 
C 581.422216 195.90507 577.842961 194.422494 574.111373 194.422494 
C 570.379784 194.422494 566.800529 195.90507 564.161898 198.543702 
C 561.523266 201.182333 560.04069 204.761588 560.04069 208.493176 
C 560.04069 212.224765 561.523266 215.80402 564.161898 218.442651 
C 566.800529 221.081283 570.379784 222.563859 574.111373 222.563859 
z
" clip-path="url(#p9a48447895)" style="fill: #4caf50; stroke: #333333; stroke-width: 2; stroke-linejoin: miter"/>
   </g>
   <g id="patch_9">
    <path d="M 386.502275 222.563859 
C 390.233863 222.563859 393.813118 221.081283 396.451749 218.442651 
C 399.090381 215.80402 400.572957 212.224765 400.572957 208.493176 
C 400.572957 204.761588 399.090381 201.182333 396.451749 198.543702 
C 393.813118 195.90507 390.233863 194.422494 386.502275 194.422494 
C 382.770686 194.422494 379.191431 195.90507 376.5528 198.543702 
C 373.914168 201.182333 372.431592 204.761588 372.431592 208.493176 
C 372.431592 212.224765 373.914168 215.80402 376.5528 218.442651 
C 379.191431 221.081283 382.770686 222.563859 386.502275 222.563859 
z
" clip-path="url(#p9a48447895)" style="fill: #4caf50; stroke: #333333; stroke-width: 2; stroke-linejoin: miter"/>
   </g>
   <g id="text_8">
    <!-- 0 -->
    <g transform="translate(476.827917 211.252551) scale(0.1 -0.1)">
     <use xlink:href="#DejaVuSans-Bold-30"/>
    </g>
   </g>
   <g id="text_9">
    <!-- S0 -->
    <g style="fill: #666666" transform="translate(475.222449 240.8372) scale(0.08 -0.08)">
     <use xlink:href="#DejaVuSans-53"/>
     <use xlink:href="#DejaVuSans-30" x="63.476562"/>
    </g>
   </g>
   <g id="text_10">
    <!-- 1 -->
    <g transform="translate(570.632466 211.252551) scale(0.1 -0.1)">
     <use xlink:href="#DejaVuSans-Bold-31"/>
    </g>
   </g>
   <g id="text_11">
    <!-- S1 -->
    <g style="fill: #666666" transform="translate(569.026998 235.208927) scale(0.08 -0.08)">
     <use xlink:href="#DejaVuSans-53"/>
     <use xlink:href="#DejaVuSans-31" x="63.476562"/>
    </g>
   </g>
   <g id="text_12">
    <!-- 2 -->
    <g transform="translate(383.023368 211.252551) scale(0.1 -0.1)">
     <defs>
      <path id="DejaVuSans-Bold-32" d="M 1844 884 
L 3897 884 
L 3897 0 
L 506 0 
L 506 884 
L 2209 2388 
Q 2438 2594 2547 2791 
Q 2656 2988 2656 3200 
Q 2656 3528 2436 3728 
Q 2216 3928 1850 3928 
Q 1569 3928 1234 3808 
Q 900 3688 519 3450 
L 519 4475 
Q 925 4609 1322 4679 
Q 1719 4750 2100 4750 
Q 2938 4750 3402 4381 
Q 3866 4013 3866 3353 
Q 3866 2972 3669 2642 
Q 3472 2313 2841 1759 
L 1844 884 
z
" transform="scale(0.015625)"/>
     </defs>
     <use xlink:href="#DejaVuSans-Bold-32"/>
    </g>
   </g>
   <g id="text_13">
    <!-- S2 -->
    <g style="fill: #666666" transform="translate(381.4179 235.208927) scale(0.08 -0.08)">
     <use xlink:href="#DejaVuSans-53"/>
     <use xlink:href="#DejaVuSans-32" x="63.476562"/>
    </g>
   </g>
   <g id="text_14">
    <!-- v=3 (min) -->
    <g transform="translate(452.532683 20.833572) scale(0.11 -0.11)">
     <defs>
      <path id="DejaVuSans-33" d="M 2597 2516 
Q 3050 2419 3304 2112 
Q 3559 1806 3559 1356 
Q 3559 666 3084 287 
Q 2609 -91 1734 -91 
Q 1441 -91 1130 -33 
Q 819 25 488 141 
L 488 750 
Q 750 597 1062 519 
Q 1375 441 1716 441 
Q 2309 441 2620 675 
Q 2931 909 2931 1356 
Q 2931 1769 2642 2001 
Q 2353 2234 1838 2234 
L 1294 2234 
L 1294 2753 
L 1863 2753 
Q 2328 2753 2575 2939 
Q 2822 3125 2822 3475 
Q 2822 3834 2567 4026 
Q 2313 4219 1838 4219 
Q 1578 4219 1281 4162 
Q 984 4106 628 3988 
L 628 4550 
Q 988 4650 1302 4700 
Q 1616 4750 1894 4750 
Q 2613 4750 3031 4423 
Q 3450 4097 3450 3541 
Q 3450 3153 3228 2886 
Q 3006 2619 2597 2516 
z
" transform="scale(0.015625)"/>
     </defs>
     <use xlink:href="#DejaVuSans-76"/>
     <use xlink:href="#DejaVuSans-3d" x="59.179688"/>
     <use xlink:href="#DejaVuSans-33" x="142.96875"/>
     <use xlink:href="#DejaVuSans-20" x="206.591797"/>
     <use xlink:href="#DejaVuSans-28" x="238.378906"/>
     <use xlink:href="#DejaVuSans-6d" x="277.392578"/>
     <use xlink:href="#DejaVuSans-69" x="374.804688"/>
     <use xlink:href="#DejaVuSans-6e" x="402.587891"/>
     <use xlink:href="#DejaVuSans-29" x="465.966797"/>
    </g>
    <!-- order=[0, 1, 2] -->
    <g transform="translate(439.249324 33.151165) scale(0.11 -0.11)">
     <use xlink:href="#DejaVuSans-6f"/>
     <use xlink:href="#DejaVuSans-72" x="61.181641"/>
     <use xlink:href="#DejaVuSans-64" x="100.544922"/>
     <use xlink:href="#DejaVuSans-65" x="164.021484"/>
     <use xlink:href="#DejaVuSans-72" x="225.544922"/>
     <use xlink:href="#DejaVuSans-3d" x="266.658203"/>
     <use xlink:href="#DejaVuSans-5b" x="350.447266"/>
     <use xlink:href="#DejaVuSans-30" x="389.460938"/>
     <use xlink:href="#DejaVuSans-2c" x="453.083984"/>
     <use xlink:href="#DejaVuSans-20" x="484.871094"/>
     <use xlink:href="#DejaVuSans-31" x="516.658203"/>
     <use xlink:href="#DejaVuSans-2c" x="580.28125"/>
     <use xlink:href="#DejaVuSans-20" x="612.068359"/>
     <use xlink:href="#DejaVuSans-32" x="643.855469"/>
     <use xlink:href="#DejaVuSans-5d" x="707.478516"/>
    </g>
    <!-- labels=[0, 0, 0] -->
    <g transform="translate(437.748855 45.468759) scale(0.11 -0.11)">
     <use xlink:href="#DejaVuSans-6c"/>
     <use xlink:href="#DejaVuSans-61" x="27.783203"/>
     <use xlink:href="#DejaVuSans-62" x="89.0625"/>
     <use xlink:href="#DejaVuSans-65" x="152.539062"/>
     <use xlink:href="#DejaVuSans-6c" x="214.0625"/>
     <use xlink:href="#DejaVuSans-73" x="241.845703"/>
     <use xlink:href="#DejaVuSans-3d" x="293.945312"/>
     <use xlink:href="#DejaVuSans-5b" x="377.734375"/>
     <use xlink:href="#DejaVuSans-30" x="416.748047"/>
     <use xlink:href="#DejaVuSans-2c" x="480.371094"/>
     <use xlink:href="#DejaVuSans-20" x="512.158203"/>
     <use xlink:href="#DejaVuSans-30" x="543.945312"/>
     <use xlink:href="#DejaVuSans-2c" x="607.568359"/>
     <use xlink:href="#DejaVuSans-20" x="639.355469"/>
     <use xlink:href="#DejaVuSans-30" x="671.142578"/>
     <use xlink:href="#DejaVuSans-5d" x="734.765625"/>
    </g>
    <!-- LOO=0, Rep=1, gap=1 -->
    <g transform="translate(416.66237 57.786353) scale(0.11 -0.11)">
     <use xlink:href="#DejaVuSans-4c"/>
     <use xlink:href="#DejaVuSans-4f" x="52.087891"/>
     <use xlink:href="#DejaVuSans-4f" x="130.798828"/>
     <use xlink:href="#DejaVuSans-3d" x="209.509766"/>
     <use xlink:href="#DejaVuSans-30" x="293.298828"/>
     <use xlink:href="#DejaVuSans-2c" x="356.921875"/>
     <use xlink:href="#DejaVuSans-20" x="388.708984"/>
     <use xlink:href="#DejaVuSans-52" x="420.496094"/>
     <use xlink:href="#DejaVuSans-65" x="485.478516"/>
     <use xlink:href="#DejaVuSans-70" x="547.001953"/>
     <use xlink:href="#DejaVuSans-3d" x="610.478516"/>
     <use xlink:href="#DejaVuSans-31" x="694.267578"/>
     <use xlink:href="#DejaVuSans-2c" x="757.890625"/>
     <use xlink:href="#DejaVuSans-20" x="789.677734"/>
     <use xlink:href="#DejaVuSans-67" x="821.464844"/>
     <use xlink:href="#DejaVuSans-61" x="884.941406"/>
     <use xlink:href="#DejaVuSans-70" x="946.220703"/>
     <use xlink:href="#DejaVuSans-3d" x="1009.697266"/>
     <use xlink:href="#DejaVuSans-31" x="1093.486328"/>
    </g>
   </g>
   <g id="legend_2">
    <g id="patch_10">
     <path d="M 560.597397 97.671353 
L 615.413647 97.671353 
Q 617.013647 97.671353 617.013647 96.071353 
L 617.013647 73.386353 
Q 617.013647 71.786353 615.413647 71.786353 
L 560.597397 71.786353 
Q 558.997397 71.786353 558.997397 73.386353 
L 558.997397 96.071353 
Q 558.997397 97.671353 560.597397 97.671353 
z
" style="fill: #ffffff; opacity: 0.8; stroke: #cccccc; stroke-linejoin: miter"/>
    </g>
    <g id="patch_11">
     <path d="M 562.197397 81.065103 
L 578.197397 81.065103 
L 578.197397 75.465103 
L 562.197397 75.465103 
z
" style="fill: #4caf50; stroke: #000000; stroke-linejoin: miter"/>
    </g>
    <g id="text_15">
     <!-- Label 0 -->
     <g transform="translate(584.597397 81.065103) scale(0.08 -0.08)">
      <use xlink:href="#DejaVuSans-4c"/>
      <use xlink:href="#DejaVuSans-61" x="55.712891"/>
      <use xlink:href="#DejaVuSans-62" x="116.992188"/>
      <use xlink:href="#DejaVuSans-65" x="180.46875"/>
      <use xlink:href="#DejaVuSans-6c" x="241.992188"/>
      <use xlink:href="#DejaVuSans-20" x="269.775391"/>
      <use xlink:href="#DejaVuSans-30" x="301.5625"/>
     </g>
    </g>
    <g id="patch_12">
     <path d="M 562.197397 92.807603 
L 578.197397 92.807603 
L 578.197397 87.207603 
L 562.197397 87.207603 
z
" style="fill: #2196f3; stroke: #000000; stroke-linejoin: miter"/>
    </g>
    <g id="text_16">
     <!-- Label 1 -->
     <g transform="translate(584.597397 92.807603) scale(0.08 -0.08)">
      <use xlink:href="#DejaVuSans-4c"/>
      <use xlink:href="#DejaVuSans-61" x="55.712891"/>
      <use xlink:href="#DejaVuSans-62" x="116.992188"/>
      <use xlink:href="#DejaVuSans-65" x="180.46875"/>
      <use xlink:href="#DejaVuSans-6c" x="241.992188"/>
      <use xlink:href="#DejaVuSans-20" x="269.775391"/>
      <use xlink:href="#DejaVuSans-31" x="301.5625"/>
     </g>
    </g>
   </g>
  </g>
  <g id="axes_3">
   <g id="line2d_4">
    <path d="M 812.706824 208.493176 
L 906.511373 208.493176 
" clip-path="url(#p9d85392447)" style="fill: none; stroke: #333333; stroke-width: 1.5; stroke-linecap: square"/>
   </g>
   <g id="line2d_5">
    <path d="M 812.706824 208.493176 
L 765.804549 127.256054 
" clip-path="url(#p9d85392447)" style="fill: none; stroke: #333333; stroke-width: 1.5; stroke-linecap: square"/>
   </g>
   <g id="line2d_6">
    <path d="M 812.706824 208.493176 
L 765.804549 289.730299 
" clip-path="url(#p9d85392447)" style="fill: none; stroke: #333333; stroke-width: 1.5; stroke-linecap: square"/>
   </g>
   <g id="patch_13">
    <path d="M 812.706824 227.254086 
C 817.682275 227.254086 822.454615 225.277318 825.97279 221.759143 
C 829.490966 218.240968 831.467733 213.468628 831.467733 208.493176 
C 831.467733 203.517725 829.490966 198.745385 825.97279 195.22721 
C 822.454615 191.709034 817.682275 189.732267 812.706824 189.732267 
C 807.731372 189.732267 802.959032 191.709034 799.440857 195.22721 
C 795.922682 198.745385 793.945914 203.517725 793.945914 208.493176 
C 793.945914 213.468628 795.922682 218.240968 799.440857 221.759143 
C 802.959032 225.277318 807.731372 227.254086 812.706824 227.254086 
z
" clip-path="url(#p9d85392447)" style="fill: #4caf50; stroke: #333333; stroke-width: 2; stroke-linejoin: miter"/>
   </g>
   <g id="patch_14">
    <path d="M 906.511373 222.563859 
C 910.242961 222.563859 913.822216 221.081283 916.460847 218.442651 
C 919.099479 215.80402 920.582055 212.224765 920.582055 208.493176 
C 920.582055 204.761588 919.099479 201.182333 916.460847 198.543702 
C 913.822216 195.90507 910.242961 194.422494 906.511373 194.422494 
C 902.779784 194.422494 899.200529 195.90507 896.561898 198.543702 
C 893.923266 201.182333 892.44069 204.761588 892.44069 208.493176 
C 892.44069 212.224765 893.923266 215.80402 896.561898 218.442651 
C 899.200529 221.081283 902.779784 222.563859 906.511373 222.563859 
z
" clip-path="url(#p9d85392447)" style="fill: #4caf50; stroke: #333333; stroke-width: 2; stroke-linejoin: miter"/>
   </g>
   <g id="patch_15">
    <path d="M 765.804549 141.326736 
C 769.536138 141.326736 773.115392 139.844161 775.754024 137.205529 
C 778.392656 134.566897 779.875231 130.987643 779.875231 127.256054 
C 779.875231 123.524465 778.392656 119.945211 775.754024 117.306579 
C 773.115392 114.667948 769.536138 113.185372 765.804549 113.185372 
C 762.07296 113.185372 758.493706 114.667948 755.855074 117.306579 
C 753.216443 119.945211 751.733867 123.524465 751.733867 127.256054 
C 751.733867 130.987643 753.216443 134.566897 755.855074 137.205529 
C 758.493706 139.844161 762.07296 141.326736 765.804549 141.326736 
z
" clip-path="url(#p9d85392447)" style="fill: #4caf50; stroke: #333333; stroke-width: 2; stroke-linejoin: miter"/>
   </g>
   <g id="patch_16">
    <path d="M 765.804549 303.800981 
C 769.536138 303.800981 773.115392 302.318405 775.754024 299.679774 
C 778.392656 297.041142 779.875231 293.461887 779.875231 289.730299 
C 779.875231 285.99871 778.392656 282.419456 775.754024 279.780824 
C 773.115392 277.142192 769.536138 275.659617 765.804549 275.659617 
C 762.07296 275.659617 758.493706 277.142192 755.855074 279.780824 
C 753.216443 282.419456 751.733867 285.99871 751.733867 289.730299 
C 751.733867 293.461887 753.216443 297.041142 755.855074 299.679774 
C 758.493706 302.318405 762.07296 303.800981 765.804549 303.800981 
z
" clip-path="url(#p9d85392447)" style="fill: #4caf50; stroke: #333333; stroke-width: 2; stroke-linejoin: miter"/>
   </g>
   <g id="text_17">
    <!-- 0 -->
    <g transform="translate(809.227917 211.252551) scale(0.1 -0.1)">
     <use xlink:href="#DejaVuSans-Bold-30"/>
    </g>
   </g>
   <g id="text_18">
    <!-- S0 -->
    <g style="fill: #666666" transform="translate(807.622449 240.8372) scale(0.08 -0.08)">
     <use xlink:href="#DejaVuSans-53"/>
     <use xlink:href="#DejaVuSans-30" x="63.476562"/>
    </g>
   </g>
   <g id="text_19">
    <!-- 1 -->
    <g transform="translate(903.032466 211.252551) scale(0.1 -0.1)">
     <use xlink:href="#DejaVuSans-Bold-31"/>
    </g>
   </g>
   <g id="text_20">
    <!-- S1 -->
    <g style="fill: #666666" transform="translate(901.426998 235.208927) scale(0.08 -0.08)">
     <use xlink:href="#DejaVuSans-53"/>
     <use xlink:href="#DejaVuSans-31" x="63.476562"/>
    </g>
   </g>
   <g id="text_21">
    <!-- 2 -->
    <g transform="translate(762.325643 130.015429) scale(0.1 -0.1)">
     <use xlink:href="#DejaVuSans-Bold-32"/>
    </g>
   </g>
   <g id="text_22">
    <!-- S2 -->
    <g style="fill: #666666" transform="translate(760.720174 153.971805) scale(0.08 -0.08)">
     <use xlink:href="#DejaVuSans-53"/>
     <use xlink:href="#DejaVuSans-32" x="63.476562"/>
    </g>
   </g>
   <g id="text_23">
    <!-- 3 -->
    <g transform="translate(762.325643 292.489674) scale(0.1 -0.1)">
     <defs>
      <path id="DejaVuSans-Bold-33" d="M 2981 2516 
Q 3453 2394 3698 2092 
Q 3944 1791 3944 1325 
Q 3944 631 3412 270 
Q 2881 -91 1863 -91 
Q 1503 -91 1142 -33 
Q 781 25 428 141 
L 428 1069 
Q 766 900 1098 814 
Q 1431 728 1753 728 
Q 2231 728 2486 893 
Q 2741 1059 2741 1369 
Q 2741 1688 2480 1852 
Q 2219 2016 1709 2016 
L 1228 2016 
L 1228 2791 
L 1734 2791 
Q 2188 2791 2409 2933 
Q 2631 3075 2631 3366 
Q 2631 3634 2415 3781 
Q 2200 3928 1806 3928 
Q 1516 3928 1219 3862 
Q 922 3797 628 3669 
L 628 4550 
Q 984 4650 1334 4700 
Q 1684 4750 2022 4750 
Q 2931 4750 3382 4451 
Q 3834 4153 3834 3553 
Q 3834 3144 3618 2883 
Q 3403 2622 2981 2516 
z
" transform="scale(0.015625)"/>
     </defs>
     <use xlink:href="#DejaVuSans-Bold-33"/>
    </g>
   </g>
   <g id="text_24">
    <!-- S3 -->
    <g style="fill: #666666" transform="translate(760.720174 316.44605) scale(0.08 -0.08)">
     <use xlink:href="#DejaVuSans-53"/>
     <use xlink:href="#DejaVuSans-33" x="63.476562"/>
    </g>
   </g>
   <g id="text_25">
    <!-- v=4 (min) -->
    <g transform="translate(784.932683 20.833572) scale(0.11 -0.11)">
     <defs>
      <path id="DejaVuSans-34" d="M 2419 4116 
L 825 1625 
L 2419 1625 
L 2419 4116 
z
M 2253 4666 
L 3047 4666 
L 3047 1625 
L 3713 1625 
L 3713 1100 
L 3047 1100 
L 3047 0 
L 2419 0 
L 2419 1100 
L 313 1100 
L 313 1709 
L 2253 4666 
z
" transform="scale(0.015625)"/>
     </defs>
     <use xlink:href="#DejaVuSans-76"/>
     <use xlink:href="#DejaVuSans-3d" x="59.179688"/>
     <use xlink:href="#DejaVuSans-34" x="142.96875"/>
     <use xlink:href="#DejaVuSans-20" x="206.591797"/>
     <use xlink:href="#DejaVuSans-28" x="238.378906"/>
     <use xlink:href="#DejaVuSans-6d" x="277.392578"/>
     <use xlink:href="#DejaVuSans-69" x="374.804688"/>
     <use xlink:href="#DejaVuSans-6e" x="402.587891"/>
     <use xlink:href="#DejaVuSans-29" x="465.966797"/>
    </g>
    <!-- order=[0, 1, 2, 3] -->
    <g transform="translate(764.654011 33.151165) scale(0.11 -0.11)">
     <use xlink:href="#DejaVuSans-6f"/>
     <use xlink:href="#DejaVuSans-72" x="61.181641"/>
     <use xlink:href="#DejaVuSans-64" x="100.544922"/>
     <use xlink:href="#DejaVuSans-65" x="164.021484"/>
     <use xlink:href="#DejaVuSans-72" x="225.544922"/>
     <use xlink:href="#DejaVuSans-3d" x="266.658203"/>
     <use xlink:href="#DejaVuSans-5b" x="350.447266"/>
     <use xlink:href="#DejaVuSans-30" x="389.460938"/>
     <use xlink:href="#DejaVuSans-2c" x="453.083984"/>
     <use xlink:href="#DejaVuSans-20" x="484.871094"/>
     <use xlink:href="#DejaVuSans-31" x="516.658203"/>
     <use xlink:href="#DejaVuSans-2c" x="580.28125"/>
     <use xlink:href="#DejaVuSans-20" x="612.068359"/>
     <use xlink:href="#DejaVuSans-32" x="643.855469"/>
     <use xlink:href="#DejaVuSans-2c" x="707.478516"/>
     <use xlink:href="#DejaVuSans-20" x="739.265625"/>
     <use xlink:href="#DejaVuSans-33" x="771.052734"/>
     <use xlink:href="#DejaVuSans-5d" x="834.675781"/>
    </g>
    <!-- labels=[0, 0, 0, 0] -->
    <g transform="translate(763.153542 45.468759) scale(0.11 -0.11)">
     <use xlink:href="#DejaVuSans-6c"/>
     <use xlink:href="#DejaVuSans-61" x="27.783203"/>
     <use xlink:href="#DejaVuSans-62" x="89.0625"/>
     <use xlink:href="#DejaVuSans-65" x="152.539062"/>
     <use xlink:href="#DejaVuSans-6c" x="214.0625"/>
     <use xlink:href="#DejaVuSans-73" x="241.845703"/>
     <use xlink:href="#DejaVuSans-3d" x="293.945312"/>
     <use xlink:href="#DejaVuSans-5b" x="377.734375"/>
     <use xlink:href="#DejaVuSans-30" x="416.748047"/>
     <use xlink:href="#DejaVuSans-2c" x="480.371094"/>
     <use xlink:href="#DejaVuSans-20" x="512.158203"/>
     <use xlink:href="#DejaVuSans-30" x="543.945312"/>
     <use xlink:href="#DejaVuSans-2c" x="607.568359"/>
     <use xlink:href="#DejaVuSans-20" x="639.355469"/>
     <use xlink:href="#DejaVuSans-30" x="671.142578"/>
     <use xlink:href="#DejaVuSans-2c" x="734.765625"/>
     <use xlink:href="#DejaVuSans-20" x="766.552734"/>
     <use xlink:href="#DejaVuSans-30" x="798.339844"/>
     <use xlink:href="#DejaVuSans-5d" x="861.962891"/>
    </g>
    <!-- LOO=0, Rep=1, gap=1 -->
    <g transform="translate(749.06237 57.786353) scale(0.11 -0.11)">
     <use xlink:href="#DejaVuSans-4c"/>
     <use xlink:href="#DejaVuSans-4f" x="52.087891"/>
     <use xlink:href="#DejaVuSans-4f" x="130.798828"/>
     <use xlink:href="#DejaVuSans-3d" x="209.509766"/>
     <use xlink:href="#DejaVuSans-30" x="293.298828"/>
     <use xlink:href="#DejaVuSans-2c" x="356.921875"/>
     <use xlink:href="#DejaVuSans-20" x="388.708984"/>
     <use xlink:href="#DejaVuSans-52" x="420.496094"/>
     <use xlink:href="#DejaVuSans-65" x="485.478516"/>
     <use xlink:href="#DejaVuSans-70" x="547.001953"/>
     <use xlink:href="#DejaVuSans-3d" x="610.478516"/>
     <use xlink:href="#DejaVuSans-31" x="694.267578"/>
     <use xlink:href="#DejaVuSans-2c" x="757.890625"/>
     <use xlink:href="#DejaVuSans-20" x="789.677734"/>
     <use xlink:href="#DejaVuSans-67" x="821.464844"/>
     <use xlink:href="#DejaVuSans-61" x="884.941406"/>
     <use xlink:href="#DejaVuSans-70" x="946.220703"/>
     <use xlink:href="#DejaVuSans-3d" x="1009.697266"/>
     <use xlink:href="#DejaVuSans-31" x="1093.486328"/>
    </g>
   </g>
   <g id="legend_3">
    <g id="patch_17">
     <path d="M 892.997397 97.671353 
L 947.813647 97.671353 
Q 949.413647 97.671353 949.413647 96.071353 
L 949.413647 73.386353 
Q 949.413647 71.786353 947.813647 71.786353 
L 892.997397 71.786353 
Q 891.397397 71.786353 891.397397 73.386353 
L 891.397397 96.071353 
Q 891.397397 97.671353 892.997397 97.671353 
z
" style="fill: #ffffff; opacity: 0.8; stroke: #cccccc; stroke-linejoin: miter"/>
    </g>
    <g id="patch_18">
     <path d="M 894.597397 81.065103 
L 910.597397 81.065103 
L 910.597397 75.465103 
L 894.597397 75.465103 
z
" style="fill: #4caf50; stroke: #000000; stroke-linejoin: miter"/>
    </g>
    <g id="text_26">
     <!-- Label 0 -->
     <g transform="translate(916.997397 81.065103) scale(0.08 -0.08)">
      <use xlink:href="#DejaVuSans-4c"/>
      <use xlink:href="#DejaVuSans-61" x="55.712891"/>
      <use xlink:href="#DejaVuSans-62" x="116.992188"/>
      <use xlink:href="#DejaVuSans-65" x="180.46875"/>
      <use xlink:href="#DejaVuSans-6c" x="241.992188"/>
      <use xlink:href="#DejaVuSans-20" x="269.775391"/>
      <use xlink:href="#DejaVuSans-30" x="301.5625"/>
     </g>
    </g>
    <g id="patch_19">
     <path d="M 894.597397 92.807603 
L 910.597397 92.807603 
L 910.597397 87.207603 
L 894.597397 87.207603 
z
" style="fill: #2196f3; stroke: #000000; stroke-linejoin: miter"/>
    </g>
    <g id="text_27">
     <!-- Label 1 -->
     <g transform="translate(916.997397 92.807603) scale(0.08 -0.08)">
      <use xlink:href="#DejaVuSans-4c"/>
      <use xlink:href="#DejaVuSans-61" x="55.712891"/>
      <use xlink:href="#DejaVuSans-62" x="116.992188"/>
      <use xlink:href="#DejaVuSans-65" x="180.46875"/>
      <use xlink:href="#DejaVuSans-6c" x="241.992188"/>
      <use xlink:href="#DejaVuSans-20" x="269.775391"/>
      <use xlink:href="#DejaVuSans-31" x="301.5625"/>
     </g>
    </g>
   </g>
  </g>
  <g id="text_28">
   <!-- Minimal 1-NN Separation Witnesses by Vertex Count -->
   <g transform="translate(296.706667 17.837812) scale(0.14 -0.14)">
    <defs>
     <path id="DejaVuSans-4d" d="M 628 4666 
L 1569 4666 
L 2759 1491 
L 3956 4666 
L 4897 4666 
L 4897 0 
L 4281 0 
L 4281 4097 
L 3078 897 
L 2444 897 
L 1241 4097 
L 1241 0 
L 628 0 
L 628 4666 
z
" transform="scale(0.015625)"/>
     <path id="DejaVuSans-2d" d="M 313 2009 
L 1997 2009 
L 1997 1497 
L 313 1497 
L 313 2009 
z
" transform="scale(0.015625)"/>
     <path id="DejaVuSans-4e" d="M 628 4666 
L 1478 4666 
L 3547 763 
L 3547 4666 
L 4159 4666 
L 4159 0 
L 3309 0 
L 1241 3903 
L 1241 0 
L 628 0 
L 628 4666 
z
" transform="scale(0.015625)"/>
     <path id="DejaVuSans-74" d="M 1172 4494 
L 1172 3500 
L 2356 3500 
L 2356 3053 
L 1172 3053 
L 1172 1153 
Q 1172 725 1289 603 
Q 1406 481 1766 481 
L 2356 481 
L 2356 0 
L 1766 0 
Q 1100 0 847 248 
Q 594 497 594 1153 
L 594 3053 
L 172 3053 
L 172 3500 
L 594 3500 
L 594 4494 
L 1172 4494 
z
" transform="scale(0.015625)"/>
     <path id="DejaVuSans-57" d="M 213 4666 
L 850 4666 
L 1831 722 
L 2809 4666 
L 3519 4666 
L 4500 722 
L 5478 4666 
L 6119 4666 
L 4947 0 
L 4153 0 
L 3169 4050 
L 2175 0 
L 1381 0 
L 213 4666 
z
" transform="scale(0.015625)"/>
     <path id="DejaVuSans-79" d="M 2059 -325 
Q 1816 -950 1584 -1140 
Q 1353 -1331 966 -1331 
L 506 -1331 
L 506 -850 
L 844 -850 
Q 1081 -850 1212 -737 
Q 1344 -625 1503 -206 
L 1606 56 
L 191 3500 
L 800 3500 
L 1894 763 
L 2988 3500 
L 3597 3500 
L 2059 -325 
z
" transform="scale(0.015625)"/>
     <path id="DejaVuSans-56" d="M 1831 0 
L 50 4666 
L 709 4666 
L 2188 738 
L 3669 4666 
L 4325 4666 
L 2547 0 
L 1831 0 
z
" transform="scale(0.015625)"/>
     <path id="DejaVuSans-78" d="M 3513 3500 
L 2247 1797 
L 3578 0 
L 2900 0 
L 1881 1375 
L 863 0 
L 184 0 
L 1544 1831 
L 300 3500 
L 978 3500 
L 1906 2253 
L 2834 3500 
L 3513 3500 
z
" transform="scale(0.015625)"/>
     <path id="DejaVuSans-43" d="M 4122 4306 
L 4122 3641 
Q 3803 3938 3442 4084 
Q 3081 4231 2675 4231 
Q 1875 4231 1450 3742 
Q 1025 3253 1025 2328 
Q 1025 1406 1450 917 
Q 1875 428 2675 428 
Q 3081 428 3442 575 
Q 3803 722 4122 1019 
L 4122 359 
Q 3791 134 3420 21 
Q 3050 -91 2638 -91 
Q 1578 -91 968 557 
Q 359 1206 359 2328 
Q 359 3453 968 4101 
Q 1578 4750 2638 4750 
Q 3056 4750 3426 4639 
Q 3797 4528 4122 4306 
z
" transform="scale(0.015625)"/>
     <path id="DejaVuSans-75" d="M 544 1381 
L 544 3500 
L 1119 3500 
L 1119 1403 
Q 1119 906 1312 657 
Q 1506 409 1894 409 
Q 2359 409 2629 706 
Q 2900 1003 2900 1516 
L 2900 3500 
L 3475 3500 
L 3475 0 
L 2900 0 
L 2900 538 
Q 2691 219 2414 64 
Q 2138 -91 1772 -91 
Q 1169 -91 856 284 
Q 544 659 544 1381 
z
M 1991 3584 
L 1991 3584 
z
" transform="scale(0.015625)"/>
    </defs>
    <use xlink:href="#DejaVuSans-4d"/>
    <use xlink:href="#DejaVuSans-69" x="86.279297"/>
    <use xlink:href="#DejaVuSans-6e" x="114.0625"/>
    <use xlink:href="#DejaVuSans-69" x="177.441406"/>
    <use xlink:href="#DejaVuSans-6d" x="205.224609"/>
    <use xlink:href="#DejaVuSans-61" x="302.636719"/>
    <use xlink:href="#DejaVuSans-6c" x="363.916016"/>
    <use xlink:href="#DejaVuSans-20" x="391.699219"/>
    <use xlink:href="#DejaVuSans-31" x="423.486328"/>
    <use xlink:href="#DejaVuSans-2d" x="487.109375"/>
    <use xlink:href="#DejaVuSans-4e" x="523.193359"/>
    <use xlink:href="#DejaVuSans-4e" x="597.998047"/>
    <use xlink:href="#DejaVuSans-20" x="672.802734"/>
    <use xlink:href="#DejaVuSans-53" x="704.589844"/>
    <use xlink:href="#DejaVuSans-65" x="768.066406"/>
    <use xlink:href="#DejaVuSans-70" x="829.589844"/>
    <use xlink:href="#DejaVuSans-61" x="893.066406"/>
    <use xlink:href="#DejaVuSans-72" x="954.345703"/>
    <use xlink:href="#DejaVuSans-61" x="995.458984"/>
    <use xlink:href="#DejaVuSans-74" x="1056.738281"/>
    <use xlink:href="#DejaVuSans-69" x="1095.947266"/>
    <use xlink:href="#DejaVuSans-6f" x="1123.730469"/>
    <use xlink:href="#DejaVuSans-6e" x="1184.912109"/>
    <use xlink:href="#DejaVuSans-20" x="1248.291016"/>
    <use xlink:href="#DejaVuSans-57" x="1280.078125"/>
    <use xlink:href="#DejaVuSans-69" x="1376.705078"/>
    <use xlink:href="#DejaVuSans-74" x="1404.488281"/>
    <use xlink:href="#DejaVuSans-6e" x="1443.697266"/>
    <use xlink:href="#DejaVuSans-65" x="1507.076172"/>
    <use xlink:href="#DejaVuSans-73" x="1568.599609"/>
    <use xlink:href="#DejaVuSans-73" x="1620.699219"/>
    <use xlink:href="#DejaVuSans-65" x="1672.798828"/>
    <use xlink:href="#DejaVuSans-73" x="1734.322266"/>
    <use xlink:href="#DejaVuSans-20" x="1786.421875"/>
    <use xlink:href="#DejaVuSans-62" x="1818.208984"/>
    <use xlink:href="#DejaVuSans-79" x="1881.685547"/>
    <use xlink:href="#DejaVuSans-20" x="1940.865234"/>
    <use xlink:href="#DejaVuSans-56" x="1972.652344"/>
    <use xlink:href="#DejaVuSans-65" x="2033.310547"/>
    <use xlink:href="#DejaVuSans-72" x="2094.833984"/>
    <use xlink:href="#DejaVuSans-74" x="2135.947266"/>
    <use xlink:href="#DejaVuSans-65" x="2175.15625"/>
    <use xlink:href="#DejaVuSans-78" x="2234.929688"/>
    <use xlink:href="#DejaVuSans-20" x="2294.109375"/>
    <use xlink:href="#DejaVuSans-43" x="2325.896484"/>
    <use xlink:href="#DejaVuSans-6f" x="2395.720703"/>
    <use xlink:href="#DejaVuSans-75" x="2456.902344"/>
    <use xlink:href="#DejaVuSans-6e" x="2520.28125"/>
    <use xlink:href="#DejaVuSans-74" x="2583.660156"/>
   </g>
  </g>
 </g>
 <defs>
  <clipPath id="p1b96b8bafc">
   <rect x="7.2" y="67.786353" width="281.413647" height="281.413647"/>
  </clipPath>
  <clipPath id="p9a48447895">
   <rect x="339.6" y="67.786353" width="281.413647" height="281.413647"/>
  </clipPath>
  <clipPath id="p9d85392447">
   <rect x="672" y="67.786353" width="281.413647" height="281.413647"/>
  </clipPath>
 </defs>
</svg>
