<?xml version="1.0" encoding="utf-8" standalone="no"?>
<!DOCTYPE svg PUBLIC "-//W3C//DTD SVG 1.1//EN"
  "http://www.w3.org/Graphics/SVG/1.1/DTD/svg11.dtd">
<svg xmlns:xlink="http://www.w3.org/1999/xlink" width="568.8pt" height="343.439273pt" viewBox="0 0 568.8 343.439273" xmlns="http://www.w3.org/2000/svg" version="1.1">
 <metadata>
  <rdf:RDF xmlns:dc="http://purl.org/dc/elements/1.1/" xmlns:cc="http://creativecommons.org/ns#" xmlns:rdf="http://www.w3.org/1999/02/22-rdf-syntax-ns#">
   <cc:Work>
    <dc:type rdf:resource="http://purl.org/dc/dcmitype/StillImage"/>
    <dc:date>2026-05-14T09:39:04.250587</dc:date>
    <dc:format>image/svg+xml</dc:format>
    <dc:creator>
     <cc:Agent>
      <dc:title>Matplotlib v3.9.4, https://matplotlib.org/</dc:title>
     </cc:Agent>
    </dc:creator>
   </cc:Work>
  </rdf:RDF>
 </metadata>
 <defs>
  <style type="text/css">*{stroke-linejoin: round; stroke-linecap: butt}</style>
 </defs>
 <g id="figure_1">
  <g id="patch_1">
   <path d="M 0 343.439273 
L 568.8 343.439273 
L 568.8 0 
L 0 0 
z
" style="fill: #ffffff"/>
  </g>
  <g id="axes_1">
   <g id="line2d_1">
    <path d="M 143.1 200.339273 
L 233.7 200.339273 
" clip-path="url(#pa3b1ead283)" style="fill: none; stroke: #333333; stroke-width: 1.5; stroke-linecap: square"/>
   </g>
   <g id="patch_2">
    <path d="M 143.1 218.459273 
C 147.90548 218.459273 152.514787 216.550035 155.912775 213.152048 
C 159.310762 209.75406 161.22 205.144753 161.22 200.339273 
C 161.22 195.533793 159.310762 190.924485 155.912775 187.526498 
C 152.514787 184.12851 147.90548 182.219273 143.1 182.219273 
C 138.29452 182.219273 133.685213 184.12851 130.287225 187.526498 
C 126.889238 190.924485 124.98 195.533793 124.98 200.339273 
C 124.98 205.144753 126.889238 209.75406 130.287225 213.152048 
C 133.685213 216.550035 138.29452 218.459273 143.1 218.459273 
z
" clip-path="url(#pa3b1ead283)" style="fill: #4caf50; stroke: #333333; stroke-width: 2; stroke-linejoin: miter"/>
   </g>
   <g id="patch_3">
    <path d="M 233.7 213.929273 
C 237.30411 213.929273 240.76109 212.497345 243.309581 209.948854 
C 245.858072 207.400363 247.29 203.943383 247.29 200.339273 
C 247.29 196.735163 245.858072 193.278182 243.309581 190.729692 
C 240.76109 188.181201 237.30411 186.749273 233.7 186.749273 
C 230.09589 186.749273 226.63891 188.181201 224.090419 190.729692 
C 221.541928 193.278182 220.11 196.735163 220.11 200.339273 
C 220.11 203.943383 221.541928 207.400363 224.090419 209.948854 
C 226.63891 212.497345 230.09589 213.929273 233.7 213.929273 
z
" clip-path="url(#pa3b1ead283)" style="fill: #4caf50; stroke: #333333; stroke-width: 2; stroke-linejoin: miter"/>
   </g>
   <g id="text_1">
    <!-- 0 -->
    <g transform="translate(139.621094 203.098648) scale(0.1 -0.1)">
     <defs>
      <path id="DejaVuSans-Bold-30" d="M 2944 2338 
Q 2944 3213 2780 3570 
Q 2616 3928 2228 3928 
Q 1841 3928 1675 3570 
Q 1509 3213 1509 2338 
Q 1509 1453 1675 1090 
Q 1841 728 2228 728 
Q 2613 728 2778 1090 
Q 2944 1453 2944 2338 
z
M 4147 2328 
Q 4147 1169 3647 539 
Q 3147 -91 2228 -91 
Q 1306 -91 806 539 
Q 306 1169 306 2328 
Q 306 3491 806 4120 
Q 1306 4750 2228 4750 
Q 3147 4750 3647 4120 
Q 4147 3491 4147 2328 
z
" transform="scale(0.015625)"/>
     </defs>
     <use xlink:href="#DejaVuSans-Bold-30"/>
    </g>
   </g>
   <g id="text_2">
    <!-- S0 -->
    <g style="fill: #666666" transform="translate(138.015625 231.786023) scale(0.08 -0.08)">
     <defs>
      <path id="DejaVuSans-53" d="M 3425 4513 
L 3425 3897 
Q 3066 4069 2747 4153 
Q 2428 4238 2131 4238 
Q 1616 4238 1336 4038 
Q 1056 3838 1056 3469 
Q 1056 3159 1242 3001 
Q 1428 2844 1947 2747 
L 2328 2669 
Q 3034 2534 3370 2195 
Q 3706 1856 3706 1288 
Q 3706 609 3251 259 
Q 2797 -91 1919 -91 
Q 1588 -91 1214 -16 
Q 841 59 441 206 
L 441 856 
Q 825 641 1194 531 
Q 1563 422 1919 422 
Q 2459 422 2753 634 
Q 3047 847 3047 1241 
Q 3047 1584 2836 1778 
Q 2625 1972 2144 2069 
L 1759 2144 
Q 1053 2284 737 2584 
Q 422 2884 422 3419 
Q 422 4038 858 4394 
Q 1294 4750 2059 4750 
Q 2388 4750 2728 4690 
Q 3069 4631 3425 4513 
z
" transform="scale(0.015625)"/>
      <path id="DejaVuSans-30" d="M 2034 4250 
Q 1547 4250 1301 3770 
Q 1056 3291 1056 2328 
Q 1056 1369 1301 889 
Q 1547 409 2034 409 
Q 2525 409 2770 889 
Q 3016 1369 3016 2328 
Q 3016 3291 2770 3770 
Q 2525 4250 2034 4250 
z
M 2034 4750 
Q 2819 4750 3233 4129 
Q 3647 3509 3647 2328 
Q 3647 1150 3233 529 
Q 2819 -91 2034 -91 
Q 1250 -91 836 529 
Q 422 1150 422 2328 
Q 422 3509 836 4129 
Q 1250 4750 2034 4750 
z
" transform="scale(0.015625)"/>
     </defs>
     <use xlink:href="#DejaVuSans-53"/>
     <use xlink:href="#DejaVuSans-30" x="63.476562"/>
    </g>
   </g>
   <g id="text_3">
    <!-- 1 -->
    <g transform="translate(230.221094 203.098648) scale(0.1 -0.1)">
     <defs>
      <path id="DejaVuSans-Bold-31" d="M 750 831 
L 1813 831 
L 1813 3847 
L 722 3622 
L 722 4441 
L 1806 4666 
L 2950 4666 
L 2950 831 
L 4013 831 
L 4013 0 
L 750 0 
L 750 831 
z
" transform="scale(0.015625)"/>
     </defs>
     <use xlink:href="#DejaVuSans-Bold-31"/>
    </g>
   </g>
   <g id="text_4">
    <!-- S1 -->
    <g style="fill: #666666" transform="translate(228.615625 226.350023) scale(0.08 -0.08)">
     <defs>
      <path id="DejaVuSans-31" d="M 794 531 
L 1825 531 
L 1825 4091 
L 703 3866 
L 703 4441 
L 1819 4666 
L 2450 4666 
L 2450 531 
L 3481 531 
L 3481 0 
L 794 0 
L 794 531 
z
" transform="scale(0.015625)"/>
     </defs>
     <use xlink:href="#DejaVuSans-53"/>
     <use xlink:href="#DejaVuSans-31" x="63.476562"/>
    </g>
   </g>
   <g id="text_5">
    <!-- v=2, e=1 -->
    <g transform="translate(116.748125 17.486491) scale(0.11 -0.11)">
     <defs>
      <path id="DejaVuSans-76" d="M 191 3500 
L 800 3500 
L 1894 563 
L 2988 3500 
L 3597 3500 
L 2284 0 
L 1503 0 
L 191 3500 
z
" transform="scale(0.015625)"/>
      <path id="DejaVuSans-3d" d="M 678 2906 
L 4684 2906 
L 4684 2381 
L 678 2381 
L 678 2906 
z
M 678 1631 
L 4684 1631 
L 4684 1100 
L 678 1100 
L 678 1631 
z
" transform="scale(0.015625)"/>
      <path id="DejaVuSans-32" d="M 1228 531 
L 3431 531 
L 3431 0 
L 469 0 
L 469 531 
Q 828 903 1448 1529 
Q 2069 2156 2228 2338 
Q 2531 2678 2651 2914 
Q 2772 3150 2772 3378 
Q 2772 3750 2511 3984 
Q 2250 4219 1831 4219 
Q 1534 4219 1204 4116 
Q 875 4013 500 3803 
L 500 4441 
Q 881 4594 1212 4672 
Q 1544 4750 1819 4750 
Q 2544 4750 2975 4387 
Q 3406 4025 3406 3419 
Q 3406 3131 3298 2873 
Q 3191 2616 2906 2266 
Q 2828 2175 2409 1742 
Q 1991 1309 1228 531 
z
" transform="scale(0.015625)"/>
      <path id="DejaVuSans-2c" d="M 750 794 
L 1409 794 
L 1409 256 
L 897 -744 
L 494 -744 
L 750 256 
L 750 794 
z
" transform="scale(0.015625)"/>
      <path id="DejaVuSans-20" transform="scale(0.015625)"/>
      <path id="DejaVuSans-65" d="M 3597 1894 
L 3597 1613 
L 953 1613 
Q 991 1019 1311 708 
Q 1631 397 2203 397 
Q 2534 397 2845 478 
Q 3156 559 3463 722 
L 3463 178 
Q 3153 47 2828 -22 
Q 2503 -91 2169 -91 
Q 1331 -91 842 396 
Q 353 884 353 1716 
Q 353 2575 817 3079 
Q 1281 3584 2069 3584 
Q 2775 3584 3186 3129 
Q 3597 2675 3597 1894 
z
M 3022 2063 
Q 3016 2534 2758 2815 
Q 2500 3097 2075 3097 
Q 1594 3097 1305 2825 
Q 1016 2553 972 2059 
L 3022 2063 
z
" transform="scale(0.015625)"/>
     </defs>
     <use xlink:href="#DejaVuSans-76"/>
     <use xlink:href="#DejaVuSans-3d" x="59.179688"/>
     <use xlink:href="#DejaVuSans-32" x="142.96875"/>
     <use xlink:href="#DejaVuSans-2c" x="206.591797"/>
     <use xlink:href="#DejaVuSans-20" x="238.378906"/>
     <use xlink:href="#DejaVuSans-65" x="270.166016"/>
     <use xlink:href="#DejaVuSans-3d" x="331.689453"/>
     <use xlink:href="#DejaVuSans-31" x="415.478516"/>
    </g>
    <!-- order=[0, 1] -->
    <g transform="translate(109.037812 29.804085) scale(0.11 -0.11)">
     <defs>
      <path id="DejaVuSans-6f" d="M 1959 3097 
Q 1497 3097 1228 2736 
Q 959 2375 959 1747 
Q 959 1119 1226 758 
Q 1494 397 1959 397 
Q 2419 397 2687 759 
Q 2956 1122 2956 1747 
Q 2956 2369 2687 2733 
Q 2419 3097 1959 3097 
z
M 1959 3584 
Q 2709 3584 3137 3096 
Q 3566 2609 3566 1747 
Q 3566 888 3137 398 
Q 2709 -91 1959 -91 
Q 1206 -91 779 398 
Q 353 888 353 1747 
Q 353 2609 779 3096 
Q 1206 3584 1959 3584 
z
" transform="scale(0.015625)"/>
      <path id="DejaVuSans-72" d="M 2631 2963 
Q 2534 3019 2420 3045 
Q 2306 3072 2169 3072 
Q 1681 3072 1420 2755 
Q 1159 2438 1159 1844 
L 1159 0 
L 581 0 
L 581 3500 
L 1159 3500 
L 1159 2956 
Q 1341 3275 1631 3429 
Q 1922 3584 2338 3584 
Q 2397 3584 2469 3576 
Q 2541 3569 2628 3553 
L 2631 2963 
z
" transform="scale(0.015625)"/>
      <path id="DejaVuSans-64" d="M 2906 2969 
L 2906 4863 
L 3481 4863 
L 3481 0 
L 2906 0 
L 2906 525 
Q 2725 213 2448 61 
Q 2172 -91 1784 -91 
Q 1150 -91 751 415 
Q 353 922 353 1747 
Q 353 2572 751 3078 
Q 1150 3584 1784 3584 
Q 2172 3584 2448 3432 
Q 2725 3281 2906 2969 
z
M 947 1747 
Q 947 1113 1208 752 
Q 1469 391 1925 391 
Q 2381 391 2643 752 
Q 2906 1113 2906 1747 
Q 2906 2381 2643 2742 
Q 2381 3103 1925 3103 
Q 1469 3103 1208 2742 
Q 947 2381 947 1747 
z
" transform="scale(0.015625)"/>
      <path id="DejaVuSans-5b" d="M 550 4863 
L 1875 4863 
L 1875 4416 
L 1125 4416 
L 1125 -397 
L 1875 -397 
L 1875 -844 
L 550 -844 
L 550 4863 
z
" transform="scale(0.015625)"/>
      <path id="DejaVuSans-5d" d="M 1947 4863 
L 1947 -844 
L 622 -844 
L 622 -397 
L 1369 -397 
L 1369 4416 
L 622 4416 
L 622 4863 
L 1947 4863 
z
" transform="scale(0.015625)"/>
     </defs>
     <use xlink:href="#DejaVuSans-6f"/>
     <use xlink:href="#DejaVuSans-72" x="61.181641"/>
     <use xlink:href="#DejaVuSans-64" x="100.544922"/>
     <use xlink:href="#DejaVuSans-65" x="164.021484"/>
     <use xlink:href="#DejaVuSans-72" x="225.544922"/>
     <use xlink:href="#DejaVuSans-3d" x="266.658203"/>
     <use xlink:href="#DejaVuSans-5b" x="350.447266"/>
     <use xlink:href="#DejaVuSans-30" x="389.460938"/>
     <use xlink:href="#DejaVuSans-2c" x="453.083984"/>
     <use xlink:href="#DejaVuSans-20" x="484.871094"/>
     <use xlink:href="#DejaVuSans-31" x="516.658203"/>
     <use xlink:href="#DejaVuSans-5d" x="580.28125"/>
    </g>
    <!-- labels=[0, 0] -->
    <g transform="translate(107.537344 42.121679) scale(0.11 -0.11)">
     <defs>
      <path id="DejaVuSans-6c" d="M 603 4863 
L 1178 4863 
L 1178 0 
L 603 0 
L 603 4863 
z
" transform="scale(0.015625)"/>
      <path id="DejaVuSans-61" d="M 2194 1759 
Q 1497 1759 1228 1600 
Q 959 1441 959 1056 
Q 959 750 1161 570 
Q 1363 391 1709 391 
Q 2188 391 2477 730 
Q 2766 1069 2766 1631 
L 2766 1759 
L 2194 1759 
z
M 3341 1997 
L 3341 0 
L 2766 0 
L 2766 531 
Q 2569 213 2275 61 
Q 1981 -91 1556 -91 
Q 1019 -91 701 211 
Q 384 513 384 1019 
Q 384 1609 779 1909 
Q 1175 2209 1959 2209 
L 2766 2209 
L 2766 2266 
Q 2766 2663 2505 2880 
Q 2244 3097 1772 3097 
Q 1472 3097 1187 3025 
Q 903 2953 641 2809 
L 641 3341 
Q 956 3463 1253 3523 
Q 1550 3584 1831 3584 
Q 2591 3584 2966 3190 
Q 3341 2797 3341 1997 
z
" transform="scale(0.015625)"/>
      <path id="DejaVuSans-62" d="M 3116 1747 
Q 3116 2381 2855 2742 
Q 2594 3103 2138 3103 
Q 1681 3103 1420 2742 
Q 1159 2381 1159 1747 
Q 1159 1113 1420 752 
Q 1681 391 2138 391 
Q 2594 391 2855 752 
Q 3116 1113 3116 1747 
z
M 1159 2969 
Q 1341 3281 1617 3432 
Q 1894 3584 2278 3584 
Q 2916 3584 3314 3078 
Q 3713 2572 3713 1747 
Q 3713 922 3314 415 
Q 2916 -91 2278 -91 
Q 1894 -91 1617 61 
Q 1341 213 1159 525 
L 1159 0 
L 581 0 
L 581 4863 
L 1159 4863 
L 1159 2969 
z
" transform="scale(0.015625)"/>
      <path id="DejaVuSans-73" d="M 2834 3397 
L 2834 2853 
Q 2591 2978 2328 3040 
Q 2066 3103 1784 3103 
Q 1356 3103 1142 2972 
Q 928 2841 928 2578 
Q 928 2378 1081 2264 
Q 1234 2150 1697 2047 
L 1894 2003 
Q 2506 1872 2764 1633 
Q 3022 1394 3022 966 
Q 3022 478 2636 193 
Q 2250 -91 1575 -91 
Q 1294 -91 989 -36 
Q 684 19 347 128 
L 347 722 
Q 666 556 975 473 
Q 1284 391 1588 391 
Q 1994 391 2212 530 
Q 2431 669 2431 922 
Q 2431 1156 2273 1281 
Q 2116 1406 1581 1522 
L 1381 1569 
Q 847 1681 609 1914 
Q 372 2147 372 2553 
Q 372 3047 722 3315 
Q 1072 3584 1716 3584 
Q 2034 3584 2315 3537 
Q 2597 3491 2834 3397 
z
" transform="scale(0.015625)"/>
     </defs>
     <use xlink:href="#DejaVuSans-6c"/>
     <use xlink:href="#DejaVuSans-61" x="27.783203"/>
     <use xlink:href="#DejaVuSans-62" x="89.0625"/>
     <use xlink:href="#DejaVuSans-65" x="152.539062"/>
     <use xlink:href="#DejaVuSans-6c" x="214.0625"/>
     <use xlink:href="#DejaVuSans-73" x="241.845703"/>
     <use xlink:href="#DejaVuSans-3d" x="293.945312"/>
     <use xlink:href="#DejaVuSans-5b" x="377.734375"/>
     <use xlink:href="#DejaVuSans-30" x="416.748047"/>
     <use xlink:href="#DejaVuSans-2c" x="480.371094"/>
     <use xlink:href="#DejaVuSans-20" x="512.158203"/>
     <use xlink:href="#DejaVuSans-30" x="543.945312"/>
     <use xlink:href="#DejaVuSans-5d" x="607.568359"/>
    </g>
    <!-- gap=1 -->
    <g transform="translate(124.638047 54.439273) scale(0.11 -0.11)">
     <defs>
      <path id="DejaVuSans-67" d="M 2906 1791 
Q 2906 2416 2648 2759 
Q 2391 3103 1925 3103 
Q 1463 3103 1205 2759 
Q 947 2416 947 1791 
Q 947 1169 1205 825 
Q 1463 481 1925 481 
Q 2391 481 2648 825 
Q 2906 1169 2906 1791 
z
M 3481 434 
Q 3481 -459 3084 -895 
Q 2688 -1331 1869 -1331 
Q 1566 -1331 1297 -1286 
Q 1028 -1241 775 -1147 
L 775 -588 
Q 1028 -725 1275 -790 
Q 1522 -856 1778 -856 
Q 2344 -856 2625 -561 
Q 2906 -266 2906 331 
L 2906 616 
Q 2728 306 2450 153 
Q 2172 0 1784 0 
Q 1141 0 747 490 
Q 353 981 353 1791 
Q 353 2603 747 3093 
Q 1141 3584 1784 3584 
Q 2172 3584 2450 3431 
Q 2728 3278 2906 2969 
L 2906 3500 
L 3481 3500 
L 3481 434 
z
" transform="scale(0.015625)"/>
      <path id="DejaVuSans-70" d="M 1159 525 
L 1159 -1331 
L 581 -1331 
L 581 3500 
L 1159 3500 
L 1159 2969 
Q 1341 3281 1617 3432 
Q 1894 3584 2278 3584 
Q 2916 3584 3314 3078 
Q 3713 2572 3713 1747 
Q 3713 922 3314 415 
Q 2916 -91 2278 -91 
Q 1894 -91 1617 61 
Q 1341 213 1159 525 
z
M 3116 1747 
Q 3116 2381 2855 2742 
Q 2594 3103 2138 3103 
Q 1681 3103 1420 2742 
Q 1159 2381 1159 1747 
Q 1159 1113 1420 752 
Q 1681 391 2138 391 
Q 2594 391 2855 752 
Q 3116 1113 3116 1747 
z
" transform="scale(0.015625)"/>
     </defs>
     <use xlink:href="#DejaVuSans-67"/>
     <use xlink:href="#DejaVuSans-61" x="63.476562"/>
     <use xlink:href="#DejaVuSans-70" x="124.755859"/>
     <use xlink:href="#DejaVuSans-3d" x="188.232422"/>
     <use xlink:href="#DejaVuSans-31" x="272.021484"/>
    </g>
   </g>
   <g id="legend_1">
    <g id="patch_4">
     <path d="M 218.58375 94.324273 
L 273.4 94.324273 
Q 275 94.324273 275 92.724273 
L 275 70.039273 
Q 275 68.439273 273.4 68.439273 
L 218.58375 68.439273 
Q 216.98375 68.439273 216.98375 70.039273 
L 216.98375 92.724273 
Q 216.98375 94.324273 218.58375 94.324273 
z
" style="fill: #ffffff; opacity: 0.8; stroke: #cccccc; stroke-linejoin: miter"/>
    </g>
    <g id="patch_5">
     <path d="M 220.18375 77.718023 
L 236.18375 77.718023 
L 236.18375 72.118023 
L 220.18375 72.118023 
z
" style="fill: #4caf50; stroke: #000000; stroke-linejoin: miter"/>
    </g>
    <g id="text_6">
     <!-- Label 0 -->
     <g transform="translate(242.58375 77.718023) scale(0.08 -0.08)">
      <defs>
       <path id="DejaVuSans-4c" d="M 628 4666 
L 1259 4666 
L 1259 531 
L 3531 531 
L 3531 0 
L 628 0 
L 628 4666 
z
" transform="scale(0.015625)"/>
      </defs>
      <use xlink:href="#DejaVuSans-4c"/>
      <use xlink:href="#DejaVuSans-61" x="55.712891"/>
      <use xlink:href="#DejaVuSans-62" x="116.992188"/>
      <use xlink:href="#DejaVuSans-65" x="180.46875"/>
      <use xlink:href="#DejaVuSans-6c" x="241.992188"/>
      <use xlink:href="#DejaVuSans-20" x="269.775391"/>
      <use xlink:href="#DejaVuSans-30" x="301.5625"/>
     </g>
    </g>
    <g id="patch_6">
     <path d="M 220.18375 89.460523 
L 236.18375 89.460523 
L 236.18375 83.860523 
L 220.18375 83.860523 
z
" style="fill: #2196f3; stroke: #000000; stroke-linejoin: miter"/>
    </g>
    <g id="text_7">
     <!-- Label 1 -->
     <g transform="translate(242.58375 89.460523) scale(0.08 -0.08)">
      <use xlink:href="#DejaVuSans-4c"/>
      <use xlink:href="#DejaVuSans-61" x="55.712891"/>
      <use xlink:href="#DejaVuSans-62" x="116.992188"/>
      <use xlink:href="#DejaVuSans-65" x="180.46875"/>
      <use xlink:href="#DejaVuSans-6c" x="241.992188"/>
      <use xlink:href="#DejaVuSans-20" x="269.775391"/>
      <use xlink:href="#DejaVuSans-31" x="301.5625"/>
     </g>
    </g>
   </g>
  </g>
  <g id="axes_2">
   <g id="line2d_2">
    <path d="M 425.7 200.339273 
L 516.3 200.339273 
" clip-path="url(#p30548da96a)" style="fill: none; stroke: #333333; stroke-width: 1.5; stroke-linecap: square"/>
   </g>
   <g id="patch_7">
    <path d="M 425.7 218.459273 
C 430.50548 218.459273 435.114787 216.550035 438.512775 213.152048 
C 441.910762 209.75406 443.82 205.144753 443.82 200.339273 
C 443.82 195.533793 441.910762 190.924485 438.512775 187.526498 
C 435.114787 184.12851 430.50548 182.219273 425.7 182.219273 
C 420.89452 182.219273 416.285213 184.12851 412.887225 187.526498 
C 409.489238 190.924485 407.58 195.533793 407.58 200.339273 
C 407.58 205.144753 409.489238 209.75406 412.887225 213.152048 
C 416.285213 216.550035 420.89452 218.459273 425.7 218.459273 
z
" clip-path="url(#p30548da96a)" style="fill: #2196f3; stroke: #333333; stroke-width: 2; stroke-linejoin: miter"/>
   </g>
   <g id="patch_8">
    <path d="M 516.3 213.929273 
C 519.90411 213.929273 523.36109 212.497345 525.909581 209.948854 
C 528.458072 207.400363 529.89 203.943383 529.89 200.339273 
C 529.89 196.735163 528.458072 193.278182 525.909581 190.729692 
C 523.36109 188.181201 519.90411 186.749273 516.3 186.749273 
C 512.69589 186.749273 509.23891 188.181201 506.690419 190.729692 
C 504.141928 193.278182 502.71 196.735163 502.71 200.339273 
C 502.71 203.943383 504.141928 207.400363 506.690419 209.948854 
C 509.23891 212.497345 512.69589 213.929273 516.3 213.929273 
z
" clip-path="url(#p30548da96a)" style="fill: #2196f3; stroke: #333333; stroke-width: 2; stroke-linejoin: miter"/>
   </g>
   <g id="text_8">
    <!-- 0 -->
    <g transform="translate(422.221094 203.098648) scale(0.1 -0.1)">
     <use xlink:href="#DejaVuSans-Bold-30"/>
    </g>
   </g>
   <g id="text_9">
    <!-- S0 -->
    <g style="fill: #666666" transform="translate(420.615625 231.786023) scale(0.08 -0.08)">
     <use xlink:href="#DejaVuSans-53"/>
     <use xlink:href="#DejaVuSans-30" x="63.476562"/>
    </g>
   </g>
   <g id="text_10">
    <!-- 1 -->
    <g transform="translate(512.821094 203.098648) scale(0.1 -0.1)">
     <use xlink:href="#DejaVuSans-Bold-31"/>
    </g>
   </g>
   <g id="text_11">
    <!-- S1 -->
    <g style="fill: #666666" transform="translate(511.215625 226.350023) scale(0.08 -0.08)">
     <use xlink:href="#DejaVuSans-53"/>
     <use xlink:href="#DejaVuSans-31" x="63.476562"/>
    </g>
   </g>
   <g id="text_12">
    <!-- v=2, e=1 -->
    <g transform="translate(399.348125 17.486491) scale(0.11 -0.11)">
     <use xlink:href="#DejaVuSans-76"/>
     <use xlink:href="#DejaVuSans-3d" x="59.179688"/>
     <use xlink:href="#DejaVuSans-32" x="142.96875"/>
     <use xlink:href="#DejaVuSans-2c" x="206.591797"/>
     <use xlink:href="#DejaVuSans-20" x="238.378906"/>
     <use xlink:href="#DejaVuSans-65" x="270.166016"/>
     <use xlink:href="#DejaVuSans-3d" x="331.689453"/>
     <use xlink:href="#DejaVuSans-31" x="415.478516"/>
    </g>
    <!-- order=[0, 1] -->
    <g transform="translate(391.637812 29.804085) scale(0.11 -0.11)">
     <use xlink:href="#DejaVuSans-6f"/>
     <use xlink:href="#DejaVuSans-72" x="61.181641"/>
     <use xlink:href="#DejaVuSans-64" x="100.544922"/>
     <use xlink:href="#DejaVuSans-65" x="164.021484"/>
     <use xlink:href="#DejaVuSans-72" x="225.544922"/>
     <use xlink:href="#DejaVuSans-3d" x="266.658203"/>
     <use xlink:href="#DejaVuSans-5b" x="350.447266"/>
     <use xlink:href="#DejaVuSans-30" x="389.460938"/>
     <use xlink:href="#DejaVuSans-2c" x="453.083984"/>
     <use xlink:href="#DejaVuSans-20" x="484.871094"/>
     <use xlink:href="#DejaVuSans-31" x="516.658203"/>
     <use xlink:href="#DejaVuSans-5d" x="580.28125"/>
    </g>
    <!-- labels=[1, 1] -->
    <g transform="translate(390.137344 42.121679) scale(0.11 -0.11)">
     <use xlink:href="#DejaVuSans-6c"/>
     <use xlink:href="#DejaVuSans-61" x="27.783203"/>
     <use xlink:href="#DejaVuSans-62" x="89.0625"/>
     <use xlink:href="#DejaVuSans-65" x="152.539062"/>
     <use xlink:href="#DejaVuSans-6c" x="214.0625"/>
     <use xlink:href="#DejaVuSans-73" x="241.845703"/>
     <use xlink:href="#DejaVuSans-3d" x="293.945312"/>
     <use xlink:href="#DejaVuSans-5b" x="377.734375"/>
     <use xlink:href="#DejaVuSans-31" x="416.748047"/>
     <use xlink:href="#DejaVuSans-2c" x="480.371094"/>
     <use xlink:href="#DejaVuSans-20" x="512.158203"/>
     <use xlink:href="#DejaVuSans-31" x="543.945312"/>
     <use xlink:href="#DejaVuSans-5d" x="607.568359"/>
    </g>
    <!-- gap=1 -->
    <g transform="translate(407.238047 54.439273) scale(0.11 -0.11)">
     <use xlink:href="#DejaVuSans-67"/>
     <use xlink:href="#DejaVuSans-61" x="63.476562"/>
     <use xlink:href="#DejaVuSans-70" x="124.755859"/>
     <use xlink:href="#DejaVuSans-3d" x="188.232422"/>
     <use xlink:href="#DejaVuSans-31" x="272.021484"/>
    </g>
   </g>
   <g id="legend_2">
    <g id="patch_9">
     <path d="M 501.18375 94.324273 
L 556 94.324273 
Q 557.6 94.324273 557.6 92.724273 
L 557.6 70.039273 
Q 557.6 68.439273 556 68.439273 
L 501.18375 68.439273 
Q 499.58375 68.439273 499.58375 70.039273 
L 499.58375 92.724273 
Q 499.58375 94.324273 501.18375 94.324273 
z
" style="fill: #ffffff; opacity: 0.8; stroke: #cccccc; stroke-linejoin: miter"/>
    </g>
    <g id="patch_10">
     <path d="M 502.78375 77.718023 
L 518.78375 77.718023 
L 518.78375 72.118023 
L 502.78375 72.118023 
z
" style="fill: #4caf50; stroke: #000000; stroke-linejoin: miter"/>
    </g>
    <g id="text_13">
     <!-- Label 0 -->
     <g transform="translate(525.18375 77.718023) scale(0.08 -0.08)">
      <use xlink:href="#DejaVuSans-4c"/>
      <use xlink:href="#DejaVuSans-61" x="55.712891"/>
      <use xlink:href="#DejaVuSans-62" x="116.992188"/>
      <use xlink:href="#DejaVuSans-65" x="180.46875"/>
      <use xlink:href="#DejaVuSans-6c" x="241.992188"/>
      <use xlink:href="#DejaVuSans-20" x="269.775391"/>
      <use xlink:href="#DejaVuSans-30" x="301.5625"/>
     </g>
    </g>
    <g id="patch_11">
     <path d="M 502.78375 89.460523 
L 518.78375 89.460523 
L 518.78375 83.860523 
L 502.78375 83.860523 
z
" style="fill: #2196f3; stroke: #000000; stroke-linejoin: miter"/>
    </g>
    <g id="text_14">
     <!-- Label 1 -->
     <g transform="translate(525.18375 89.460523) scale(0.08 -0.08)">
      <use xlink:href="#DejaVuSans-4c"/>
      <use xlink:href="#DejaVuSans-61" x="55.712891"/>
      <use xlink:href="#DejaVuSans-62" x="116.992188"/>
      <use xlink:href="#DejaVuSans-65" x="180.46875"/>
      <use xlink:href="#DejaVuSans-6c" x="241.992188"/>
      <use xlink:href="#DejaVuSans-20" x="269.775391"/>
      <use xlink:href="#DejaVuSans-31" x="301.5625"/>
     </g>
    </g>
   </g>
  </g>
  <g id="text_15">
   <!-- 1-NN Separation Witnesses (k=1), 2 vertices -->
   <g transform="translate(150.331875 16.318125) scale(0.12 -0.12)">
    <defs>
     <path id="DejaVuSans-2d" d="M 313 2009 
L 1997 2009 
L 1997 1497 
L 313 1497 
L 313 2009 
z
" transform="scale(0.015625)"/>
     <path id="DejaVuSans-4e" d="M 628 4666 
L 1478 4666 
L 3547 763 
L 3547 4666 
L 4159 4666 
L 4159 0 
L 3309 0 
L 1241 3903 
L 1241 0 
L 628 0 
L 628 4666 
z
" transform="scale(0.015625)"/>
     <path id="DejaVuSans-74" d="M 1172 4494 
L 1172 3500 
L 2356 3500 
L 2356 3053 
L 1172 3053 
L 1172 1153 
Q 1172 725 1289 603 
Q 1406 481 1766 481 
L 2356 481 
L 2356 0 
L 1766 0 
Q 1100 0 847 248 
Q 594 497 594 1153 
L 594 3053 
L 172 3053 
L 172 3500 
L 594 3500 
L 594 4494 
L 1172 4494 
z
" transform="scale(0.015625)"/>
     <path id="DejaVuSans-69" d="M 603 3500 
L 1178 3500 
L 1178 0 
L 603 0 
L 603 3500 
z
M 603 4863 
L 1178 4863 
L 1178 4134 
L 603 4134 
L 603 4863 
z
" transform="scale(0.015625)"/>
     <path id="DejaVuSans-6e" d="M 3513 2113 
L 3513 0 
L 2938 0 
L 2938 2094 
Q 2938 2591 2744 2837 
Q 2550 3084 2163 3084 
Q 1697 3084 1428 2787 
Q 1159 2491 1159 1978 
L 1159 0 
L 581 0 
L 581 3500 
L 1159 3500 
L 1159 2956 
Q 1366 3272 1645 3428 
Q 1925 3584 2291 3584 
Q 2894 3584 3203 3211 
Q 3513 2838 3513 2113 
z
" transform="scale(0.015625)"/>
     <path id="DejaVuSans-57" d="M 213 4666 
L 850 4666 
L 1831 722 
L 2809 4666 
L 3519 4666 
L 4500 722 
L 5478 4666 
L 6119 4666 
L 4947 0 
L 4153 0 
L 3169 4050 
L 2175 0 
L 1381 0 
L 213 4666 
z
" transform="scale(0.015625)"/>
     <path id="DejaVuSans-28" d="M 1984 4856 
Q 1566 4138 1362 3434 
Q 1159 2731 1159 2009 
Q 1159 1288 1364 580 
Q 1569 -128 1984 -844 
L 1484 -844 
Q 1016 -109 783 600 
Q 550 1309 550 2009 
Q 550 2706 781 3412 
Q 1013 4119 1484 4856 
L 1984 4856 
z
" transform="scale(0.015625)"/>
     <path id="DejaVuSans-6b" d="M 581 4863 
L 1159 4863 
L 1159 1991 
L 2875 3500 
L 3609 3500 
L 1753 1863 
L 3688 0 
L 2938 0 
L 1159 1709 
L 1159 0 
L 581 0 
L 581 4863 
z
" transform="scale(0.015625)"/>
     <path id="DejaVuSans-29" d="M 513 4856 
L 1013 4856 
Q 1481 4119 1714 3412 
Q 1947 2706 1947 2009 
Q 1947 1309 1714 600 
Q 1481 -109 1013 -844 
L 513 -844 
Q 928 -128 1133 580 
Q 1338 1288 1338 2009 
Q 1338 2731 1133 3434 
Q 928 4138 513 4856 
z
" transform="scale(0.015625)"/>
     <path id="DejaVuSans-63" d="M 3122 3366 
L 3122 2828 
Q 2878 2963 2633 3030 
Q 2388 3097 2138 3097 
Q 1578 3097 1268 2742 
Q 959 2388 959 1747 
Q 959 1106 1268 751 
Q 1578 397 2138 397 
Q 2388 397 2633 464 
Q 2878 531 3122 666 
L 3122 134 
Q 2881 22 2623 -34 
Q 2366 -91 2075 -91 
Q 1284 -91 818 406 
Q 353 903 353 1747 
Q 353 2603 823 3093 
Q 1294 3584 2113 3584 
Q 2378 3584 2631 3529 
Q 2884 3475 3122 3366 
z
" transform="scale(0.015625)"/>
    </defs>
    <use xlink:href="#DejaVuSans-31"/>
    <use xlink:href="#DejaVuSans-2d" x="63.623047"/>
    <use xlink:href="#DejaVuSans-4e" x="99.707031"/>
    <use xlink:href="#DejaVuSans-4e" x="174.511719"/>
    <use xlink:href="#DejaVuSans-20" x="249.316406"/>
    <use xlink:href="#DejaVuSans-53" x="281.103516"/>
    <use xlink:href="#DejaVuSans-65" x="344.580078"/>
    <use xlink:href="#DejaVuSans-70" x="406.103516"/>
    <use xlink:href="#DejaVuSans-61" x="469.580078"/>
    <use xlink:href="#DejaVuSans-72" x="530.859375"/>
    <use xlink:href="#DejaVuSans-61" x="571.972656"/>
    <use xlink:href="#DejaVuSans-74" x="633.251953"/>
    <use xlink:href="#DejaVuSans-69" x="672.460938"/>
    <use xlink:href="#DejaVuSans-6f" x="700.244141"/>
    <use xlink:href="#DejaVuSans-6e" x="761.425781"/>
    <use xlink:href="#DejaVuSans-20" x="824.804688"/>
    <use xlink:href="#DejaVuSans-57" x="856.591797"/>
    <use xlink:href="#DejaVuSans-69" x="953.21875"/>
    <use xlink:href="#DejaVuSans-74" x="981.001953"/>
    <use xlink:href="#DejaVuSans-6e" x="1020.210938"/>
    <use xlink:href="#DejaVuSans-65" x="1083.589844"/>
    <use xlink:href="#DejaVuSans-73" x="1145.113281"/>
    <use xlink:href="#DejaVuSans-73" x="1197.212891"/>
    <use xlink:href="#DejaVuSans-65" x="1249.3125"/>
    <use xlink:href="#DejaVuSans-73" x="1310.835938"/>
    <use xlink:href="#DejaVuSans-20" x="1362.935547"/>
    <use xlink:href="#DejaVuSans-28" x="1394.722656"/>
    <use xlink:href="#DejaVuSans-6b" x="1433.736328"/>
    <use xlink:href="#DejaVuSans-3d" x="1491.646484"/>
    <use xlink:href="#DejaVuSans-31" x="1575.435547"/>
    <use xlink:href="#DejaVuSans-29" x="1639.058594"/>
    <use xlink:href="#DejaVuSans-2c" x="1678.072266"/>
    <use xlink:href="#DejaVuSans-20" x="1709.859375"/>
    <use xlink:href="#DejaVuSans-32" x="1741.646484"/>
    <use xlink:href="#DejaVuSans-20" x="1805.269531"/>
    <use xlink:href="#DejaVuSans-76" x="1837.056641"/>
    <use xlink:href="#DejaVuSans-65" x="1896.236328"/>
    <use xlink:href="#DejaVuSans-72" x="1957.759766"/>
    <use xlink:href="#DejaVuSans-74" x="1998.873047"/>
    <use xlink:href="#DejaVuSans-69" x="2038.082031"/>
    <use xlink:href="#DejaVuSans-63" x="2065.865234"/>
    <use xlink:href="#DejaVuSans-65" x="2120.845703"/>
    <use xlink:href="#DejaVuSans-73" x="2182.369141"/>
   </g>
  </g>
 </g>
 <defs>
  <clipPath id="pa3b1ead283">
   <rect x="7.2" y="64.439273" width="271.8" height="271.8"/>
  </clipPath>
  <clipPath id="p30548da96a">
   <rect x="289.8" y="64.439273" width="271.8" height="271.8"/>
  </clipPath>
 </defs>
</svg>
